<svg width="102" height="122" viewBox="0 0 102 122" fill="none" xmlns="http://www.w3.org/2000/svg">
<g clip-path="url(#clip0_13_165)">
<path d="M50.5144 9.36711L49.8364 11.8349V79.7921L50.5144 80.3543L81.5305 55.9597L50.5144 9.36711Z" fill="#626262"/>
<path d="M50.5076 9.36841L19.4907 67.4581L50.5076 80.3556V47.3711V9.36841Z" fill="#AFAFAF"/>
<path d="M50.5148 86.3295L50.1327 86.8742V111.082L50.5148 112.145L81.5499 61.941L50.5148 86.3295Z" fill="#444444"/>
<path d="M50.5076 112.147V86.3309L19.4907 73.443L50.5076 112.147Z" fill="#AFAFAF"/>
<path d="M50.5029 80.3554L81.519 55.9608L50.5029 47.3708V80.3554Z" fill="#404040"/>
<path d="M19.4907 67.4571L50.5076 80.3545V47.37L19.4907 67.4571Z" fill="#5C5C5C"/>
</g>
<defs>
<clipPath id="clip0_13_165">
<rect width="102.776" height="102.776" fill="white" transform="matrix(0.983255 -0.182236 0 1 0 18.7295)"/>
</clipPath>
</defs>
</svg>
