<svg width="24" height="24" viewBox="0 0 24 24" fill="none" xmlns="http://www.w3.org/2000/svg">
<g opacity="0.5">
<path d="M18.75 14.9998V14.9998C20.5449 14.9998 22 13.5447 22 11.7498V8.49982C22 6.16519 22 4.99787 21.5277 4.11423C21.1548 3.41652 20.5833 2.84507 19.8856 2.47213C19.0019 1.99982 17.8346 1.99982 15.5 1.99982H12.25C10.4551 1.99982 9 3.45489 9 5.24982V5.24982" stroke="white" stroke-width="1.5" stroke-linecap="round"/>
<path d="M1.75 15.4998C1.75 13.8377 1.75123 12.6571 1.85831 11.7511C1.96343 10.8618 2.16158 10.3354 2.48772 9.93804C2.62277 9.77348 2.77366 9.62258 2.93822 9.48753C3.33563 9.16139 3.86197 8.96325 4.75133 8.85813C5.65724 8.75104 6.83789 8.74982 8.5 8.74982C10.1621 8.74982 11.3428 8.75104 12.2487 8.85813C13.138 8.96325 13.6644 9.16139 14.0618 9.48753C14.2263 9.62258 14.3772 9.77348 14.5123 9.93804C14.8384 10.3354 15.0366 10.8618 15.1417 11.7511C15.2488 12.6571 15.25 13.8377 15.25 15.4998C15.25 17.1619 15.2488 18.3426 15.1417 19.2485C15.0366 20.1378 14.8384 20.6642 14.5123 21.0616C14.3772 21.2262 14.2263 21.377 14.0618 21.5121C13.6644 21.8382 13.138 22.0364 12.2487 22.1415C11.3428 22.2486 10.1621 22.2498 8.5 22.2498C6.83789 22.2498 5.65724 22.2486 4.75133 22.1415C3.86197 22.0364 3.33563 21.8382 2.93822 21.5121C2.77366 21.377 2.62277 21.2262 2.48772 21.0616C2.16158 20.6642 1.96343 20.1378 1.85831 19.2485C1.75123 18.3426 1.75 17.1619 1.75 15.4998Z" stroke="white" stroke-width="1.5"/>
</g>
</svg>
