<svg width="44" height="44" viewBox="0 0 44 44" fill="none" xmlns="http://www.w3.org/2000/svg">
<path d="M13.4548 18.4892L21.9999 9.944L30.5491 18.4928L35.5211 13.5208L21.9999 0L8.48317 13.5168L13.455 18.4888L13.4548 18.4892ZM0 22L4.97216 17.0271L9.94396 21.9989L4.9718 26.9711L0 22ZM13.4548 25.5114L21.9999 34.056L30.5489 25.5073L35.5235 30.4767L35.5211 30.4793L21.9999 44L8.48317 30.4832L8.47613 30.4762L13.4553 25.5108L13.4548 25.5114ZM34.0559 22.0021L39.028 17.0299L43.9998 22.0018L39.0278 26.9739L34.0559 22.0021Z" fill="#F3BA2F"/>
<path d="M27.0427 21.9973H27.0448L22 16.9521L18.2711 20.68L17.8427 21.1085L16.9592 21.9922L16.9521 21.9991L16.9592 22.0063L22 27.0478L27.0452 22.0026L27.0476 21.9998L27.043 21.9973" fill="#F3BA2F"/>
</svg>
