<svg width="44" height="44" viewBox="0 0 44 44" fill="none" xmlns="http://www.w3.org/2000/svg">
<path d="M22 44C34.1503 44 44 34.1503 44 22C44 9.84974 34.1503 0 22 0C9.84974 0 0 9.84974 0 22C0 34.1503 9.84974 44 22 44Z" fill="#3259A5"/>
<path d="M29.5889 23.4347C28.9168 26.9962 25.7918 29.6892 22.0355 29.6892C17.7884 29.6892 14.3463 26.247 14.3463 21.9999C14.3463 17.7527 17.7884 14.3106 22.0355 14.3106C25.7918 14.3106 28.9168 17.0051 29.5889 20.565H37.3476C36.6242 12.7444 30.045 6.62134 22.0355 6.62134C13.5412 6.62134 6.65698 13.5071 6.65698 21.9999C6.65698 30.4942 13.5427 37.3784 22.0355 37.3784C30.045 37.3784 36.6242 31.2554 37.3476 23.4347H29.5889Z" fill="white"/>
</svg>
