<svg width="40" height="36" viewBox="0 0 40 36" fill="none" xmlns="http://www.w3.org/2000/svg">
<path fill-rule="evenodd" clip-rule="evenodd" d="M11.3274 32.9858L16.5152 34.3827V32.556L16.9387 32.1262H19.9031V34.2751V35.7794H16.727L12.8096 34.0602L11.3274 32.9858Z" fill="#CDBDB2"/>
<path fill-rule="evenodd" clip-rule="evenodd" d="M28.2671 32.9858L23.1852 34.3827V32.556L22.7618 32.1262H19.7973V34.2751V35.7794H22.9735L26.8907 34.0602L28.2671 32.9858Z" fill="#CDBDB2"/>
<path fill-rule="evenodd" clip-rule="evenodd" d="M16.9396 29.0104L16.5161 32.556L17.0454 32.1262H22.5507L23.1859 32.556L22.7625 29.0104L21.9155 28.4731L17.6806 28.5806L16.9396 29.0104Z" fill="#393939"/>
<path fill-rule="evenodd" clip-rule="evenodd" d="M14.0801 5.04993L16.621 11.0669L17.7857 28.5806H21.9146L23.185 11.0669L25.5142 5.04993H14.0801Z" fill="#F89C35"/>
<path fill-rule="evenodd" clip-rule="evenodd" d="M2.96441 18.2658L0 26.9688L7.41102 26.5391H12.1752V22.7786L11.9634 15.0425L10.9047 15.902L2.96441 18.2658Z" fill="#F89D35"/>
<path fill-rule="evenodd" clip-rule="evenodd" d="M8.57495 19.2328L17.2564 19.4477L16.3037 23.9604L12.1746 22.8859L8.57495 19.2328Z" fill="#D87C30"/>
<path fill-rule="evenodd" clip-rule="evenodd" d="M8.57495 19.3403L12.1746 22.7786V26.2168L8.57495 19.3403Z" fill="#EA8D3A"/>
<path fill-rule="evenodd" clip-rule="evenodd" d="M12.1746 22.8859L16.4094 23.9603L17.7859 28.5806L16.8329 29.1177L12.1746 26.3241V22.8859Z" fill="#F89D35"/>
<path fill-rule="evenodd" clip-rule="evenodd" d="M12.1744 26.3242L11.3274 32.9858L16.9387 29.0104L12.1744 26.3242Z" fill="#EB8F35"/>
<path fill-rule="evenodd" clip-rule="evenodd" d="M17.2565 19.4476L17.7859 28.5806L16.1978 23.9067L17.2565 19.4476Z" fill="#EA8E3A"/>
<path fill-rule="evenodd" clip-rule="evenodd" d="M7.30469 26.4317L12.1748 26.3242L11.3278 32.9858L7.30469 26.4317Z" fill="#D87C30"/>
<path fill-rule="evenodd" clip-rule="evenodd" d="M2.32918 35.8869L11.3282 32.9858L7.30506 26.4317L0 26.9688L2.32918 35.8869Z" fill="#EB8F35"/>
<path fill-rule="evenodd" clip-rule="evenodd" d="M16.6212 11.0669L12.0688 14.9349L8.57495 19.2328L17.2564 19.5552L16.6212 11.0669Z" fill="#E8821E"/>
<path fill-rule="evenodd" clip-rule="evenodd" d="M11.3274 32.9858L16.9387 29.0104L16.5152 32.4486V34.3827L12.7038 33.6304L11.3274 32.9858Z" fill="#DFCEC3"/>
<path fill-rule="evenodd" clip-rule="evenodd" d="M28.2671 32.9858L22.7618 29.0104L23.1852 32.4486V34.3827L26.9966 33.6304L28.2671 32.9858Z" fill="#DFCEC3"/>
<path fill-rule="evenodd" clip-rule="evenodd" d="M14.9278 21.3817L16.0925 23.853L11.9634 22.7785L14.9278 21.3817Z" fill="#393939"/>
<path fill-rule="evenodd" clip-rule="evenodd" d="M2.22266 0.00012207L16.6212 11.0669L14.1863 5.04997L2.22266 0.00012207Z" fill="#E88F35"/>
<path fill-rule="evenodd" clip-rule="evenodd" d="M2.22259 0L0.316895 5.90951L1.37561 12.3562L0.63451 12.786L1.69323 13.753L0.846253 14.5052L2.01084 15.5796L1.26974 16.2243L2.96369 18.3732L10.9041 15.9019C14.786 12.7502 16.6917 11.1385 16.6211 11.0669C16.5506 10.9953 11.751 7.3063 2.22259 0Z" fill="#8E5A30"/>
<path fill-rule="evenodd" clip-rule="evenodd" d="M36.6325 18.2658L39.5969 26.9688L32.1859 26.5391H27.4218V22.7786L27.6335 15.0425L28.6922 15.902L36.6325 18.2658Z" fill="#F89D35"/>
<path fill-rule="evenodd" clip-rule="evenodd" d="M31.022 19.2328L22.3405 19.4477L23.2932 23.9604L27.4223 22.8859L31.022 19.2328Z" fill="#D87C30"/>
<path fill-rule="evenodd" clip-rule="evenodd" d="M31.022 19.3403L27.4223 22.7786V26.2168L31.022 19.3403Z" fill="#EA8D3A"/>
<path fill-rule="evenodd" clip-rule="evenodd" d="M27.4226 22.8859L23.1877 23.9603L21.8113 28.5806L22.7643 29.1177L27.4226 26.3241V22.8859Z" fill="#F89D35"/>
<path fill-rule="evenodd" clip-rule="evenodd" d="M27.4223 26.3242L28.2693 32.9858L22.7639 29.1177L27.4223 26.3242Z" fill="#EB8F35"/>
<path fill-rule="evenodd" clip-rule="evenodd" d="M22.3402 19.4476L21.8108 28.5806L23.3989 23.9067L22.3402 19.4476Z" fill="#EA8E3A"/>
<path fill-rule="evenodd" clip-rule="evenodd" d="M32.2922 26.4317L27.4221 26.3242L28.2691 32.9858L32.2922 26.4317Z" fill="#D87C30"/>
<path fill-rule="evenodd" clip-rule="evenodd" d="M37.2677 35.8869L28.2687 32.9858L32.2919 26.4317L39.5969 26.9688L37.2677 35.8869Z" fill="#EB8F35"/>
<path fill-rule="evenodd" clip-rule="evenodd" d="M22.9757 11.0669L27.5281 14.9349L31.022 19.2328L22.3405 19.5552L22.9757 11.0669Z" fill="#E8821E"/>
<path fill-rule="evenodd" clip-rule="evenodd" d="M24.6691 21.3817L23.5044 23.853L27.6335 22.7785L24.6691 21.3817Z" fill="#393939"/>
<path fill-rule="evenodd" clip-rule="evenodd" d="M37.3743 0.00012207L22.9757 11.0669L25.4107 5.04997L37.3743 0.00012207Z" fill="#E88F35"/>
<path fill-rule="evenodd" clip-rule="evenodd" d="M37.3743 0L39.28 5.90951L38.2213 12.3562L38.9624 12.786L37.9037 13.753L38.7507 14.5052L37.5861 15.5796L38.3272 16.2243L36.6332 18.3732L28.6929 15.9019C24.8109 12.7502 22.9052 11.1385 22.9758 11.0669C23.0464 10.9953 27.8459 7.3063 37.3743 0Z" fill="#8E5A30"/>
</svg>
