<svg width="40" height="46" viewBox="0 0 40 46" fill="none" xmlns="http://www.w3.org/2000/svg">
<path d="M19.7031 0L0 11.3717V34.1152L19.7031 45.4869L39.4062 34.1152V11.3717L19.7031 0ZM19.7031 0L0 11.3717V34.1152L19.7031 45.4869L39.4062 34.1152V11.3717L19.7031 0Z" fill="white"/>
<path d="M27.4817 36.6028H24.6782L21.322 33.5229V31.9435L24.7967 28.6268V23.3752L29.3375 20.4138L34.51 24.3229L27.4817 36.6028ZM15.873 28.3109L16.3864 23.3752L14.6885 18.9529H24.7177L23.0593 23.3752L23.5332 28.3109H19.6636H15.873ZM18.1632 33.5229L14.8069 36.6423H11.964L4.89616 24.3229L10.1082 20.4533L14.6885 23.3752V28.6268L18.1632 31.9435V33.5229ZM11.9245 9.83182H27.4422L29.298 17.7289H10.1082L11.9245 9.83182ZM19.7031 0L0 11.3717V34.1152L19.7031 45.4869L39.4062 34.1152V11.3717L19.7031 0Z" fill="#03316C"/>
</svg>
