<svg width="28" height="28" viewBox="0 0 28 28" fill="none" xmlns="http://www.w3.org/2000/svg">
<path fill-rule="evenodd" clip-rule="evenodd" d="M0.666748 14C0.666748 6.64 6.64008 0.666666 14.0001 0.666666C21.3601 0.666666 27.3334 6.64 27.3334 14C27.3334 21.36 21.3601 27.3333 14.0001 27.3333C6.64008 27.3333 0.666748 21.36 0.666748 14ZM24.6667 14C24.6667 8.11867 19.8814 3.33333 14.0001 3.33333C8.11875 3.33333 3.33341 8.11867 3.33341 14C3.33341 19.8813 8.11875 24.6667 14.0001 24.6667C19.8814 24.6667 24.6667 19.8813 24.6667 14ZM14.0001 20.6667C13.2667 20.6667 12.6667 20.0667 12.6667 19.3333V14C12.6667 13.2667 13.2667 12.6667 14.0001 12.6667C14.7334 12.6667 15.3334 13.2667 15.3334 14V19.3333C15.3334 20.0667 14.7334 20.6667 14.0001 20.6667ZM15.3334 10H12.6667V7.33333H15.3334V10Z" fill="white" fill-opacity="0.3"/>
</svg>
