<svg width="36" height="36" viewBox="0 0 36 36" fill="none" xmlns="http://www.w3.org/2000/svg">
<circle cx="18" cy="18" r="18" fill="#C4C4C4" fill-opacity="0.1"/>
<path d="M24.3 12H10.7C9.76245 12 9 12.7599 9 13.6932V23.9076C9 24.8401 9.76245 25.6 10.7 25.6H13.25V29L18.6483 25.6H24.3C25.2376 25.6 26 24.8401 26 23.9068V13.6932C25.9986 13.2434 25.8189 12.8125 25.5002 12.495C25.1815 12.1776 24.7498 11.9995 24.3 12ZM16.65 18.8C16.65 19.1362 16.5503 19.4649 16.3635 19.7445C16.1767 20.024 15.9112 20.2419 15.6006 20.3706C15.2899 20.4993 14.9481 20.5329 14.6183 20.4673C14.2886 20.4017 13.9857 20.2398 13.7479 20.0021C13.5102 19.7643 13.3483 19.4614 13.2827 19.1317C13.2171 18.8019 13.2507 18.4601 13.3794 18.1494C13.5081 17.8388 13.726 17.5733 14.0055 17.3865C14.2851 17.1997 14.6138 17.1 14.95 17.1C15.0231 17.1 15.0919 17.1128 15.1625 17.1212C15.2322 17.1093 15.3019 17.1 15.375 17.1C15.7132 17.1 16.0375 17.2343 16.2766 17.4734C16.5157 17.7125 16.65 18.0368 16.65 18.375C16.65 18.4481 16.6398 18.5178 16.6288 18.5875C16.6373 18.6581 16.65 18.7277 16.65 18.8ZM20.05 20.5C19.5991 20.5 19.1667 20.3209 18.8479 20.0021C18.5291 19.6833 18.35 19.2509 18.35 18.8C18.35 18.7269 18.3628 18.6581 18.3713 18.5875C18.3586 18.5173 18.3515 18.4463 18.35 18.375C18.35 18.0368 18.4843 17.7125 18.7234 17.4734C18.9625 17.2343 19.2868 17.1 19.625 17.1C19.6981 17.1 19.7678 17.1093 19.8375 17.1212C19.9081 17.1128 19.9769 17.1 20.05 17.1C20.5009 17.1 20.9333 17.2791 21.2521 17.5979C21.5709 17.9167 21.75 18.3491 21.75 18.8C21.75 19.2509 21.5709 19.6833 21.2521 20.0021C20.9333 20.3209 20.5009 20.5 20.05 20.5Z" fill="#BAC7CF"/>
</svg>
