<svg width="13" height="11" viewBox="0 0 13 11" fill="none" xmlns="http://www.w3.org/2000/svg">
<path d="M12.6069 4.94651L0.976122 0.0581513C0.859004 0.00893183 0.728657 -0.00960567 0.600215 0.00469152C0.471773 0.0189887 0.350508 0.065534 0.250499 0.138922C0.150491 0.212311 0.0758444 0.309531 0.0352263 0.419294C-0.00539171 0.529056 -0.0103142 0.646858 0.0210307 0.75902L0.850236 3.72198L6.15797 5.49951L0.850236 7.27704L0.0210307 10.24C-0.0109039 10.3522 -0.0063923 10.4703 0.0340379 10.5803C0.074468 10.6904 0.149145 10.7878 0.249333 10.8614C0.349522 10.9349 0.471079 10.9814 0.599786 10.9955C0.728493 11.0096 0.859028 10.9906 0.976122 10.9409L12.6069 6.0525C12.7244 6.00316 12.8238 5.92495 12.8934 5.82702C12.963 5.7291 13 5.6155 13 5.49951C13 5.38351 12.963 5.26991 12.8934 5.17199C12.8238 5.07406 12.7244 4.99586 12.6069 4.94651Z" fill="#575C61"/>
</svg>
