<svg width="51" height="51" viewBox="0 0 51 51" fill="none" xmlns="http://www.w3.org/2000/svg">
<circle cx="25.5" cy="25.5" r="25.5" fill="#F3BA2F"/>
<path d="M19.2225 22.3392L25.714 15.7586L32.2082 22.3445L35.9832 18.5135L25.714 8.09644L15.4448 18.5108L19.2225 22.3392Z" fill="black"/>
<path d="M9 25.0454L12.7763 21.2157L16.5526 25.0454L12.7763 28.8751L9 25.0454Z" fill="black"/>
<path d="M19.2249 27.7502L25.7164 34.3334L32.2105 27.7475L35.9882 31.5732L35.9856 31.5759L25.7164 41.9929L15.4472 31.5813L15.4419 31.5759L19.2249 27.7502Z" fill="black"/>
<path d="M34.8716 25.0454L38.6479 21.2157L42.4242 25.0454L38.6479 28.8751L34.8716 25.0454Z" fill="black"/>
<path d="M29.5447 25.0433L25.7142 21.1559L22.8816 24.0286L22.5542 24.3579L21.8837 25.0379L21.8784 25.0433L21.8837 25.0513L25.7142 28.9332L29.5447 25.0459L29.5473 25.0433H29.5447Z" fill="black"/>
</svg>
