<svg width="109" height="23" viewBox="0 0 109 23" fill="none" xmlns="http://www.w3.org/2000/svg">
<g clip-path="url(#clip0_102_54)">
<path d="M6.66685 9.32973L10.9009 5.01911L15.1366 9.33324L17.5989 6.82368L10.9009 0L4.20288 6.82193L6.66685 9.32973Z" fill="#F3BA2F"/>
<path d="M-0.000976562 11.1022L2.46209 8.59353L4.92516 11.1022L2.46209 13.6108L-0.000976562 11.1022Z" fill="#F3BA2F"/>
<path d="M6.66687 12.8739L10.9009 17.1863L15.1367 12.8722L17.6006 15.3782L17.5989 15.38L10.9009 22.2037L4.20291 15.3835L4.19946 15.38L6.66687 12.8739Z" fill="#F3BA2F"/>
<path d="M16.8726 11.1029L19.3356 8.59427L21.7987 11.1029L19.3356 13.6115L16.8726 11.1029Z" fill="#F3BA2F"/>
<path d="M13.3994 11.1009L10.901 8.55457L9.05347 10.4363L8.83996 10.652L8.40261 11.0974L8.39917 11.1009L8.40261 11.1062L10.901 13.6491L13.3994 11.1027L13.4011 11.1009H13.3994Z" fill="#F3BA2F"/>
<path d="M25.6416 5.38037H31C32.3293 5.38037 33.3348 5.73111 34.0167 6.4326C34.2736 6.69172 34.4761 7.0013 34.6119 7.34256C34.7478 7.68381 34.8142 8.04962 34.807 8.41779V8.45111C34.8116 8.75272 34.7704 9.05324 34.6848 9.342C34.6085 9.59058 34.4977 9.82679 34.3559 10.0435C34.2236 10.2478 34.0636 10.432 33.8807 10.5906C33.7019 10.7474 33.506 10.8827 33.2969 10.994C33.8999 11.2079 34.442 11.5692 34.8759 12.0462C35.2593 12.4905 35.451 13.1043 35.451 13.8876V13.9209C35.4619 14.4101 35.3574 14.8949 35.1462 15.3344C34.9416 15.7394 34.6417 16.0865 34.2732 16.3446C33.8567 16.629 33.3929 16.834 32.9044 16.9496C32.324 17.0898 31.729 17.1575 31.1326 17.1513H25.6416V5.38037ZM30.4628 10.1399C30.9264 10.1628 31.3877 10.0612 31.8007 9.84531C31.9617 9.74951 32.0932 9.6097 32.1802 9.44171C32.2672 9.27372 32.3063 9.08427 32.2931 8.8948V8.86148C32.3016 8.68691 32.2668 8.51297 32.1919 8.35572C32.1169 8.19848 32.0043 8.06301 31.8644 7.96183C31.5785 7.75489 31.1659 7.65142 30.6264 7.65142H28.1193V10.1399H30.4628ZM31.1395 14.8837C31.6013 14.9101 32.0611 14.8024 32.4653 14.5733C32.6228 14.4703 32.7502 14.3261 32.8344 14.1559C32.9186 13.9856 32.9564 13.7955 32.944 13.6053V13.5719C32.9502 13.3912 32.9128 13.2116 32.835 13.0489C32.7573 12.8863 32.6416 12.7455 32.498 12.639C32.2018 12.4051 31.7232 12.2882 31.062 12.2882H28.1193V14.8837H31.1395Z" fill="#24272C"/>
<path d="M38.6433 5.38037H41.1865V17.1548H38.6433V5.38037Z" fill="#24272C"/>
<path d="M45.0349 5.38037H47.3801L52.8004 12.6267V5.38037H55.3109V17.1548H53.1465L47.5488 9.66994V17.1548H45.0349V5.38037Z" fill="#24272C"/>
<path d="M63.0109 5.29626H65.3526L70.3064 17.1548H67.6513L66.5941 14.5138H61.7057L60.6485 17.1548H58.0554L63.0109 5.29626ZM65.6867 12.2269L64.1473 8.40734L62.6149 12.2269H65.6867Z" fill="#24272C"/>
<path d="M73.0562 5.38037H75.4013L80.8182 12.6267V5.38037H83.3287V17.1548H81.1643L75.5666 9.66994V17.1548H73.0562V5.38037Z" fill="#24272C"/>
<path d="M92.482 17.3617C91.6715 17.3688 90.868 17.2089 90.1197 16.8917C89.4152 16.5955 88.776 16.1586 88.2399 15.6068C87.7037 15.055 87.2815 14.3995 86.9979 13.6789C86.6988 12.9252 86.5473 12.1191 86.552 11.3062V11.2728C86.5387 9.67035 87.1441 8.12668 88.2377 6.97451C88.7758 6.4117 89.42 5.9655 90.1317 5.66273C90.9059 5.33613 91.7371 5.17324 92.575 5.18397C93.0706 5.1802 93.5654 5.22543 94.0524 5.31901C94.469 5.39926 94.8764 5.52327 95.268 5.68904C95.6233 5.84137 95.9611 6.0331 96.2753 6.26075C96.5818 6.48277 96.8698 6.73031 97.1362 7.00081L95.5194 8.90183C95.1062 8.51363 94.6427 8.18496 94.1419 7.92502C93.6499 7.6854 93.11 7.56533 92.5647 7.57427C92.1109 7.56934 91.6612 7.66281 91.2456 7.84846C90.83 8.03411 90.4579 8.30769 90.1541 8.65105C89.8528 8.99353 89.6169 9.39022 89.4585 9.82077C89.2926 10.2758 89.2091 10.7577 89.2122 11.243V11.2764C89.2106 11.761 89.294 12.2421 89.4585 12.6969C89.6149 13.129 89.8484 13.5279 90.1472 13.8736C90.4486 14.2212 90.8198 14.4988 91.2357 14.6876C91.6516 14.8764 92.1025 14.972 92.5578 14.9679C93.1376 14.9865 93.713 14.8594 94.2331 14.5979C94.7284 14.323 95.1863 13.9834 95.5951 13.5877L97.2137 15.2538C96.9279 15.5697 96.6188 15.8628 96.289 16.1306C95.9651 16.3915 95.6133 16.6144 95.2404 16.7953C94.8431 16.9858 94.4245 17.1265 93.9938 17.2144C93.4962 17.316 92.9896 17.3654 92.482 17.3617V17.3617Z" fill="#24272C"/>
<path d="M100.215 5.38037H108.915V7.68474H102.717V10.0733H108.175V12.3777H102.725V14.8504H109.001V17.1548H100.22L100.215 5.38037Z" fill="#24272C"/>
</g>
<defs>
<clipPath id="clip0_102_54">
<rect width="109" height="22.2037" fill="white"/>
</clipPath>
</defs>
</svg>
