<svg width="123" height="25" viewBox="0 0 123 25" fill="none" xmlns="http://www.w3.org/2000/svg">
<path d="M12.334 24.6679C19.1458 24.6679 24.6679 19.1458 24.6679 12.334C24.6679 5.5221 19.1458 0 12.334 0C5.5221 0 0 5.5221 0 12.334C0 19.1458 5.5221 24.6679 12.334 24.6679Z" fill="#3259A5"/>
<path d="M16.5881 13.1383C16.2113 15.135 14.4593 16.6448 12.3534 16.6448C9.97234 16.6448 8.04257 14.715 8.04257 12.3339C8.04257 9.95281 9.97234 8.02303 12.3534 8.02303C14.4593 8.02303 16.2113 9.53366 16.5881 11.5295H20.9379C20.5323 7.14494 16.8438 3.71216 12.3534 3.71216C7.59124 3.71216 3.73169 7.57255 3.73169 12.3339C3.73169 17.0961 7.59209 20.9557 12.3534 20.9557C16.8438 20.9557 20.5323 17.5229 20.9379 13.1383H16.5881Z" fill="white"/>
<path d="M48.545 7.50234C45.1562 7.50234 42.5084 10.0748 42.5084 13.5186C42.5084 16.9632 45.0893 19.5128 48.545 19.5128C52.0006 19.5128 54.6264 16.9184 54.6264 13.4966C54.6256 10.0968 52.0455 7.50234 48.545 7.50234ZM48.567 17.031C46.6372 17.031 45.2231 15.5322 45.2231 13.5194C45.2231 11.4838 46.6143 9.9859 48.5441 9.9859C50.4968 9.9859 51.91 11.5067 51.91 13.5194C51.9108 15.5322 50.4967 17.031 48.567 17.031ZM55.3665 10.1197H57.0499V19.2901H59.7426V7.72673H55.3665V10.1197ZM35.7317 9.98505C37.1458 9.98505 38.2678 10.8572 38.6937 12.1545H41.5439C41.0274 9.38131 38.7386 7.50234 35.7546 7.50234C32.3658 7.50234 29.718 10.0748 29.718 13.5186C29.718 16.9632 32.299 19.5128 35.7546 19.5128C38.6717 19.5128 41.0054 17.6339 41.5219 14.8379H38.6946C38.2907 16.1351 37.1687 17.0301 35.7546 17.0301C33.802 17.0301 32.4336 15.5314 32.4336 13.5186C32.4327 11.4838 33.7791 9.98505 35.7317 9.98505ZM106.53 12.4009L104.555 12.1104C103.613 11.9766 102.939 11.6633 102.939 10.925C102.939 10.1197 103.815 9.71747 105.004 9.71747C106.305 9.71747 107.136 10.2763 107.315 11.1934H109.918C109.626 8.86732 107.831 7.50318 105.072 7.50318C102.221 7.50318 100.336 8.95708 100.336 11.0147C100.336 12.9826 101.571 14.124 104.061 14.4814L106.036 14.7718C107.001 14.9056 107.54 15.2866 107.54 16.0022C107.54 16.9192 106.597 17.2994 105.296 17.2994C103.702 17.2994 102.805 16.6508 102.67 15.6668H100.022C100.27 17.926 102.042 19.5137 105.273 19.5137C108.213 19.5137 110.165 18.1716 110.165 15.8675C110.165 13.8099 108.751 12.7362 106.53 12.4009ZM58.3954 2.96199C57.408 2.96199 56.6671 3.67751 56.6671 4.66145C56.6671 5.64539 57.408 6.36175 58.3954 6.36175C59.3827 6.36175 60.1236 5.64623 60.1236 4.66229C60.1236 3.67835 59.3835 2.96199 58.3954 2.96199ZM97.9121 11.6854C97.9121 9.18062 96.3863 7.50318 93.155 7.50318C90.1033 7.50318 88.3979 9.04684 88.0609 11.4178H90.7316C90.8662 10.5007 91.5843 9.74034 93.1101 9.74034C94.4793 9.74034 95.1525 10.3441 95.1525 11.0825C95.1525 12.0444 93.9179 12.2899 92.3921 12.4466C90.3277 12.6701 87.7696 13.3857 87.7696 16.0699C87.7696 18.1504 89.3183 19.4917 91.7866 19.4917C93.7164 19.4917 94.9281 18.6864 95.5344 17.4112C95.6242 18.5518 96.4769 19.2901 97.6666 19.2901H99.2373V16.8972H97.913V11.6854H97.9121ZM95.2643 14.5931C95.2643 16.1368 93.9179 17.2774 92.2795 17.2774C91.2693 17.2774 90.4166 16.8523 90.4166 15.9581C90.4166 14.8175 91.7858 14.5042 93.0424 14.3704C94.2541 14.2587 94.9273 13.9902 95.2643 13.4754V14.5931ZM80.9701 7.50234C79.4662 7.50234 78.2096 8.12895 77.3121 9.17978V2.85022H74.6193V19.2901H77.2672V17.7693C78.1647 18.8651 79.4442 19.5137 80.9701 19.5137C84.2013 19.5137 86.6476 16.9641 86.6476 13.5194C86.6476 10.0748 84.1564 7.50234 80.9701 7.50234ZM80.5662 17.031C78.6364 17.031 77.2223 15.5322 77.2223 13.5194C77.2223 11.5067 78.6584 9.9859 80.5882 9.9859C82.5408 9.9859 83.9092 11.4847 83.9092 13.5194C83.91 15.5322 82.4959 17.031 80.5662 17.031ZM68.1797 7.50234C66.4295 7.50234 65.2846 8.21785 64.6115 9.22466V7.72588H61.9408V19.2893H64.6335V13.0046C64.6335 11.2374 65.7554 9.98505 67.4159 9.98505C68.9647 9.98505 69.9291 11.0808 69.9291 12.6693V19.2901H72.6218V12.4686C72.6227 9.56082 71.1188 7.50234 68.1797 7.50234ZM123 13.1392C123 9.82924 120.577 7.50318 117.322 7.50318C113.867 7.50318 111.331 10.0977 111.331 13.5194C111.331 17.1207 114.046 19.5137 117.367 19.5137C120.173 19.5137 122.372 17.8583 122.932 15.5102H120.127C119.723 16.539 118.736 17.1207 117.411 17.1207C115.683 17.1207 114.382 16.047 114.09 14.1681H122.999V13.1392H123ZM114.249 12.2442C114.676 10.6337 115.887 9.85126 117.278 9.85126C118.804 9.85126 119.971 10.7234 120.24 12.2442H114.249Z" fill="#24272C"/>
</svg>
