<svg width="28" height="29" viewBox="0 0 28 29" fill="none" xmlns="http://www.w3.org/2000/svg">
<ellipse cx="14.0021" cy="14.5295" rx="10.5636" ry="10.7346" fill="white"/>
<path d="M27.4039 17.6477C25.5587 25.048 18.0625 29.5517 10.6605 27.7063C3.26143 25.8613 -1.24284 18.3656 0.603251 10.9657C2.44761 3.56448 9.94379 -0.939689 17.3437 0.90532C24.7453 2.75033 29.2491 10.2469 27.4039 17.6477Z" fill="#8434D8"/>
<g clip-path="url(#clip0_183_257)">
<path d="M13.9984 4.4375L13.8691 4.84212V16.5834L13.9984 16.7022L19.916 13.4806L13.9984 4.4375Z" fill="white"/>
<path d="M14.0026 4.4375L8.08496 13.4806L14.0026 16.7022V11.0034V4.4375Z" fill="white"/>
<path d="M13.9996 17.7348L13.9268 17.8166V21.9991L13.9996 22.195L19.9208 14.5149L13.9996 17.7348Z" fill="white"/>
<path d="M13.9997 22.195V17.7348L8.08203 14.5149L13.9997 22.195Z" fill="white"/>
<path d="M14 16.7029L19.9175 13.4814L14 11.0042V16.7029Z" fill="white"/>
<path d="M8.08203 13.4814L13.9996 16.7029V11.0042L8.08203 13.4814Z" fill="white"/>
</g>
<defs>
<clipPath id="clip0_183_257">
<rect width="11.8405" height="17.7608" fill="white" transform="translate(8.08203 4.43848)"/>
</clipPath>
</defs>
</svg>
