<svg width="108" height="18" viewBox="0 0 108 18" fill="none" xmlns="http://www.w3.org/2000/svg">
<path d="M18.3607 3.74221L19.916 3.44025L18.6199 3.15986L19.3111 2.34025L18.1015 2.64221L18.3175 1.45594L17.4967 2.01672L17.1079 0.485352L16.7623 2.23241L15.7687 1.45594L16.0927 2.5128L15.1423 2.34025L15.9631 3.20299L14.6023 3.48338L15.9847 3.78535L15.4231 4.41083L16.2871 4.34613L15.8983 5.51083L16.8487 4.54025L17.1295 6.09318L17.4319 4.54025L18.1663 5.31671L18.0799 4.34613L19.1383 4.71279L18.3607 3.74221ZM17.8207 3.3324C17.8207 3.69907 17.5399 3.97946 17.1727 3.97946C16.8055 3.97946 16.5247 3.69907 16.5247 3.3324C16.5247 2.96574 16.8055 2.68535 17.1727 2.68535C17.5399 2.68535 17.8207 2.96574 17.8207 3.3324Z" fill="#24272C"/>
<path d="M106.898 6.80682H107.135C107.287 6.80682 107.33 6.89309 107.33 6.9578C107.33 7.04407 107.287 7.10878 107.135 7.10878H106.898V6.80682ZM107.114 7.25976C107.179 7.25976 107.222 7.25976 107.265 7.3029C107.308 7.34603 107.308 7.43231 107.33 7.54015C107.33 7.60486 107.351 7.66956 107.373 7.73427H107.524C107.481 7.62642 107.481 7.51858 107.459 7.43231C107.438 7.32446 107.416 7.25976 107.308 7.21662C107.438 7.19505 107.503 7.08721 107.503 6.9578C107.503 6.74211 107.33 6.69897 107.157 6.69897H106.79V7.73427H106.941V7.25976H107.114V7.25976Z" fill="#24272C"/>
<path d="M107.849 7.19413C107.849 7.60393 107.503 7.94903 107.093 7.94903C106.682 7.94903 106.337 7.60393 106.337 7.19413C106.337 6.78432 106.682 6.43923 107.093 6.43923C107.503 6.4608 107.849 6.78432 107.849 7.19413ZM107.093 6.30981C106.596 6.30981 106.186 6.71962 106.186 7.2157C106.186 7.71178 106.596 8.12158 107.093 8.12158C107.59 8.12158 108 7.71178 108 7.2157C108 6.69805 107.59 6.30981 107.093 6.30981Z" fill="#24272C"/>
<path d="M9.24489 3.05273L7.97048 7.4743C7.84088 7.94881 7.75448 8.46645 7.68968 8.96253H7.58168L6.02646 3.05273H1.81442L0 14.29H3.95284L4.42805 9.48018C4.47125 9.02724 4.49285 8.5743 4.53605 8.12136H4.66565C4.68725 8.59587 4.79525 9.04881 4.92485 9.52332L6.39367 14.29H8.79129L10.4113 9.24292C10.5409 8.87626 10.6057 8.48802 10.6705 8.12136H10.7353L11.2969 14.29H15.2498L13.3921 3.05273H9.24489Z" fill="#24272C"/>
<path d="M19.1388 9.13531V6.37454H15.2723V14.2902H19.1172V11.6588C19.6356 13.4922 21.234 14.4628 23.3508 14.4628C24.0204 14.4628 24.69 14.2902 25.2948 14.0961L25.4676 10.8392C25.014 11.1628 24.582 11.4432 23.9772 11.4432C23.3508 11.4432 22.8324 10.9471 22.8324 10.3C22.8324 9.58826 23.3292 9.11375 24.042 9.11375C24.6036 9.11375 25.0572 9.43728 25.4676 9.7608V6.59022C24.69 6.3314 23.8476 6.18042 23.0484 6.18042C21.126 6.18042 19.614 7.40983 19.1388 9.13531V9.13531Z" fill="#24272C"/>
<path d="M102.018 6.22357L100.657 9.32945L100.268 10.5373H100.16L100.138 9.32945L99.7495 6.22357H92.0814L92.0166 7.3667H91.9086C91.5198 6.52553 90.807 6.05102 89.7918 6.05102C87.8694 6.05102 86.4438 7.7118 85.9038 9.43729C85.7094 7.38827 84.003 6.202 81.6917 6.202C79.9637 6.202 78.3221 6.97847 77.3501 8.31572L77.6525 6.41769L76.3565 6.48239L76.7669 3.82946H72.8788L72.4468 6.48239L71.6476 6.43926V6.39612H67.8676L67.846 7.34514H67.7596C67.306 6.56867 66.5716 6.22357 65.6212 6.22357C63.7419 6.22357 62.3595 7.73337 61.7763 9.41572L62.2731 6.28828C60.9771 6.26671 60.2427 6.48239 59.4003 7.51768H59.3139L59.5731 6.46082H55.7283L54.4106 6.52553L54.821 3.87259H50.933L50.501 6.52553L49.5722 6.46082L49.1834 8.87651C48.7946 8.07847 47.9738 7.62553 46.8938 7.38827L46.0082 7.17259C45.7058 7.10788 45.209 7.04318 45.2738 6.6118C45.3386 6.15886 45.9002 6.00788 46.2458 6.00788C47.1314 6.00788 47.8658 6.37455 48.4922 6.84906L50.0474 3.98044C49.0538 3.31181 47.909 2.98828 46.6346 2.98828C44.1937 2.98828 41.5153 4.47651 41.0833 7.15102C40.8025 8.91964 41.9905 9.84709 43.5457 10.1275L44.3449 10.2785C44.7121 10.3432 45.2306 10.4079 45.1658 10.904C45.0793 11.4 44.4097 11.5726 44.0209 11.5726C43.0705 11.5726 42.2713 11.1196 41.6233 10.5373L41.4073 10.3216C41.3425 7.62553 39.1825 6.202 36.6121 6.202C34.9056 6.202 33.3936 6.82749 32.5296 8.03533V6.202C31.2336 6.18043 30.5208 6.39612 29.8512 7.43141H29.7648L29.8512 6.37455H26.0063V14.2902H29.8512V11.2491C29.8512 10.2569 30.3696 9.67454 31.3632 9.67454C31.5576 9.67454 31.7088 9.71768 31.86 9.76082C31.8384 9.9765 31.8168 10.1922 31.8168 10.4294C31.8168 13.0608 34.1496 14.4628 36.6337 14.4628C37.7785 14.4628 38.9017 14.1608 39.7657 13.5569C40.9321 14.1824 42.4873 14.5706 43.8913 14.5706C46.3322 14.5706 48.989 13.2334 49.421 10.5589C49.4858 10.1275 49.4858 9.76082 49.421 9.43729L50.0906 9.39415L49.2482 14.3118H53.1362L53.9138 9.39415L55.2099 9.48043L54.4322 14.3549H58.2771L58.7523 11.3138C58.9035 10.3216 59.5083 9.73925 60.5019 9.73925C60.9555 9.73925 61.2147 9.9118 61.5387 10.1275C61.5171 10.2138 61.4955 10.3 61.4955 10.3863C61.1931 12.3059 62.0355 14.4843 64.1956 14.4843C65.2756 14.4843 65.9884 14.0098 66.8092 13.2549H66.8956L66.6148 14.2902H70.3948L71.1724 9.41572L71.9932 9.35102L71.2156 14.2902H75.1037L75.8813 9.37258L76.7237 9.41572C76.5941 9.73925 76.5077 10.0843 76.4429 10.451C76.0109 13.1902 78.0845 14.4628 80.5901 14.4628C82.4045 14.4628 84.6942 13.5785 85.4934 11.6804H81.7349C81.6053 12.0471 81.2597 12.3275 80.8493 12.3275C80.0501 12.3275 80.0501 11.6157 80.1581 10.9687H85.6446C85.6446 12.6941 86.5734 14.3118 88.4526 14.3118C89.3598 14.3118 90.4614 13.8589 90.9798 12.9961H91.0878L90.8934 13.7941C90.6558 14.7863 89.8998 15.5412 88.863 15.5412C87.9126 15.5412 86.8758 15.1961 86.2278 14.5706L84.9534 17.2451L85.3206 17.3745C86.379 17.7843 87.3942 18 88.6254 18C91.3902 18 94.1335 16.749 94.6087 13.6647L95.7319 6.63337L97.8487 13.3412L95.1703 17.3961H99.2311L106.078 6.202L102.018 6.22357ZM36.7633 11.4863C36.1585 11.4863 35.6832 11.0334 35.6832 10.4079C35.6832 9.76082 36.1153 9.24317 36.7633 9.24317C37.4113 9.24317 37.8433 9.76082 37.8433 10.4079C37.8433 11.0334 37.3681 11.4863 36.7633 11.4863ZM67.3708 10.2785C67.2844 10.8824 66.874 11.4647 66.1612 11.4647C65.47 11.4647 65.254 10.9255 65.3404 10.3C65.4268 9.71768 65.902 9.2216 66.5068 9.2216C67.1116 9.2216 67.4572 9.65298 67.3708 10.2785V10.2785ZM82.2749 9.32945V9.37258H80.3525V9.30788C80.4389 8.72553 80.7845 8.33729 81.2381 8.25102C81.3029 8.22945 81.3677 8.22945 81.4325 8.22945C81.6917 8.22945 81.9077 8.33729 82.0589 8.50984C82.2533 8.72553 82.3397 9.00592 82.2749 9.32945ZM91.563 10.1922C91.4766 10.7961 91.0662 11.2922 90.4182 11.2922C89.7486 11.2922 89.403 10.8177 89.511 10.1706C89.619 9.54513 90.1158 9.02749 90.7422 9.02749C91.3902 9.04905 91.6494 9.60984 91.563 10.1922Z" fill="#24272C"/>
</svg>
