<svg width="26" height="26" viewBox="0 0 26 26" fill="none" xmlns="http://www.w3.org/2000/svg">
<circle cx="13" cy="13" r="13" fill="#F3BA2F"/>
<path d="M10.0104 11.3473L13.4188 7.89215L16.8286 11.3501L18.8107 9.3386L13.4188 3.86908L8.02686 9.3372L10.0104 11.3473Z" fill="black"/>
<path d="M4.64307 12.7682L6.62584 10.7574L8.60862 12.7682L6.62584 14.779L4.64307 12.7682Z" fill="black"/>
<path d="M10.0117 14.1884L13.4201 17.645L16.8299 14.187L18.8134 16.1957L18.812 16.1971L13.4201 21.6667L8.02816 16.2L8.02539 16.1971L10.0117 14.1884Z" fill="black"/>
<path d="M18.2271 12.7682L20.2098 10.7574L22.1926 12.7682L20.2098 14.7791L18.2271 12.7682Z" fill="black"/>
<path d="M15.43 12.7671L13.4188 10.7261L11.9315 12.2344L11.7596 12.4073L11.4076 12.7643L11.4048 12.7671L11.4076 12.7713L13.4188 14.8096L15.43 12.7685L15.4314 12.7671H15.43Z" fill="black"/>
</svg>
