<svg width="124" height="26" viewBox="0 0 124 26" fill="none" xmlns="http://www.w3.org/2000/svg">
<path d="M21.5078 3.43803L13.7002 9.23684L15.144 5.81562L21.5078 3.43803Z" fill="#E2761B" stroke="#E2761B" stroke-linecap="round" stroke-linejoin="round"/>
<path d="M3.48438 3.43803L11.2292 9.29177L9.856 5.81562L3.48438 3.43803Z" fill="#E4761B" stroke="#E4761B" stroke-linecap="round" stroke-linejoin="round"/>
<path d="M18.6995 16.8796L16.6201 20.0655L21.0693 21.2896L22.3483 16.9503L18.6995 16.8796Z" fill="#E4761B" stroke="#E4761B" stroke-linecap="round" stroke-linejoin="round"/>
<path d="M2.66016 16.9503L3.93134 21.2896L8.3805 20.0655L6.30109 16.8796L2.66016 16.9503Z" fill="#E4761B" stroke="#E4761B" stroke-linecap="round" stroke-linejoin="round"/>
<path d="M8.12945 11.4967L6.88965 13.3721L11.3074 13.5683L11.1505 8.82095L8.12945 11.4967Z" fill="#E4761B" stroke="#E4761B" stroke-linecap="round" stroke-linejoin="round"/>
<path d="M16.8625 11.4967L13.8022 8.76603L13.7002 13.5683L18.1101 13.3721L16.8625 11.4967Z" fill="#E4761B" stroke="#E4761B" stroke-linecap="round" stroke-linejoin="round"/>
<path d="M8.38086 20.0655L11.0331 18.7707L8.74181 16.9817L8.38086 20.0655Z" fill="#E4761B" stroke="#E4761B" stroke-linecap="round" stroke-linejoin="round"/>
<path d="M13.96 18.7707L16.62 20.0655L16.2512 16.9817L13.96 18.7707Z" fill="#E4761B" stroke="#E4761B" stroke-linecap="round" stroke-linejoin="round"/>
<path d="M16.62 20.0655L13.96 18.7707L14.1718 20.5049L14.1483 21.2346L16.62 20.0655Z" fill="#D7C1B3" stroke="#D7C1B3" stroke-linecap="round" stroke-linejoin="round"/>
<path d="M8.38086 20.0655L10.8526 21.2346L10.8369 20.5049L11.0331 18.7707L8.38086 20.0655Z" fill="#D7C1B3" stroke="#D7C1B3" stroke-linecap="round" stroke-linejoin="round"/>
<path d="M10.8915 15.836L8.67871 15.1847L10.2402 14.4707L10.8915 15.836Z" fill="#233447" stroke="#233447" stroke-linecap="round" stroke-linejoin="round"/>
<path d="M14.1006 15.836L14.7519 14.4707L16.3212 15.1847L14.1006 15.836Z" fill="#233447" stroke="#233447" stroke-linecap="round" stroke-linejoin="round"/>
<path d="M8.38019 20.0655L8.75684 16.8796L6.30078 16.9503L8.38019 20.0655Z" fill="#CD6116" stroke="#CD6116" stroke-linecap="round" stroke-linejoin="round"/>
<path d="M16.2432 16.8796L16.6198 20.0655L18.6992 16.9503L16.2432 16.8796Z" fill="#CD6116" stroke="#CD6116" stroke-linecap="round" stroke-linejoin="round"/>
<path d="M18.1101 13.3721L13.7002 13.5683L14.1082 15.836L14.7595 14.4707L16.3289 15.1847L18.1101 13.3721Z" fill="#CD6116" stroke="#CD6116" stroke-linecap="round" stroke-linejoin="round"/>
<path d="M8.67873 15.1847L10.2481 14.4707L10.8915 15.836L11.3074 13.5683L6.88965 13.3721L8.67873 15.1847Z" fill="#CD6116" stroke="#CD6116" stroke-linecap="round" stroke-linejoin="round"/>
<path d="M6.88965 13.3721L8.7415 16.9817L8.67872 15.1847L6.88965 13.3721Z" fill="#E4751F" stroke="#E4751F" stroke-linecap="round" stroke-linejoin="round"/>
<path d="M16.3294 15.1847L16.251 16.9817L18.1107 13.3721L16.3294 15.1847Z" fill="#E4751F" stroke="#E4751F" stroke-linecap="round" stroke-linejoin="round"/>
<path d="M11.3075 13.5683L10.8916 15.836L11.4095 18.5118L11.5272 14.9886L11.3075 13.5683Z" fill="#E4751F" stroke="#E4751F" stroke-linecap="round" stroke-linejoin="round"/>
<path d="M13.7011 13.5683L13.4893 14.9807L13.5834 18.5118L14.1092 15.836L13.7011 13.5683Z" fill="#E4751F" stroke="#E4751F" stroke-linecap="round" stroke-linejoin="round"/>
<path d="M14.1087 15.836L13.583 18.5118L13.9597 18.7707L16.2509 16.9817L16.3294 15.1847L14.1087 15.836Z" fill="#F6851B" stroke="#F6851B" stroke-linecap="round" stroke-linejoin="round"/>
<path d="M8.67871 15.1847L8.74149 16.9817L11.0328 18.7707L11.4094 18.5118L10.8915 15.836L8.67871 15.1847Z" fill="#F6851B" stroke="#F6851B" stroke-linecap="round" stroke-linejoin="round"/>
<path d="M14.1483 21.2346L14.1718 20.5049L13.9756 20.3322H11.0174L10.8369 20.5049L10.8526 21.2346L8.38086 20.0655L9.24401 20.7717L10.9939 21.9879H13.9992L15.7569 20.7717L16.62 20.0655L14.1483 21.2346Z" fill="#C0AD9E" stroke="#C0AD9E" stroke-linecap="round" stroke-linejoin="round"/>
<path d="M13.96 18.7707L13.5833 18.5118H11.4097L11.0331 18.7707L10.8369 20.5049L11.0174 20.3323H13.9756L14.1718 20.5049L13.96 18.7707Z" fill="#161616" stroke="#161616" stroke-linecap="round" stroke-linejoin="round"/>
<path d="M21.8372 9.61349L22.5042 6.41198L21.5076 3.43803L13.959 9.04067L16.8623 11.4967L20.9662 12.6973L21.8764 11.638L21.4841 11.3555L22.1118 10.7827L21.6253 10.406L22.2531 9.92736L21.8372 9.61349Z" fill="#763D16" stroke="#763D16" stroke-linecap="round" stroke-linejoin="round"/>
<path d="M2.49512 6.41198L3.1621 9.61349L2.73837 9.92736L3.36612 10.406L2.88746 10.7827L3.51521 11.3555L3.12286 11.638L4.02525 12.6973L8.12914 11.4967L11.0325 9.04067L3.48382 3.43803L2.49512 6.41198Z" fill="#763D16" stroke="#763D16" stroke-linecap="round" stroke-linejoin="round"/>
<path d="M20.9669 12.6973L16.863 11.4967L18.1107 13.3721L16.251 16.9817L18.6992 16.9503H22.348L20.9669 12.6973Z" fill="#F6851B" stroke="#F6851B" stroke-linecap="round" stroke-linejoin="round"/>
<path d="M8.1294 11.4967L4.0255 12.6973L2.66016 16.9503H6.30109L8.74145 16.9817L6.8896 13.3721L8.1294 11.4967Z" fill="#F6851B" stroke="#F6851B" stroke-linecap="round" stroke-linejoin="round"/>
<path d="M13.7004 13.5683L13.9594 9.04067L15.1521 5.81562H9.85547L11.0325 9.04067L11.3071 13.5683L11.4013 14.9964L11.4091 18.5118H13.5827L13.5984 14.9964L13.7004 13.5683Z" fill="#F6851B" stroke="#F6851B" stroke-linecap="round" stroke-linejoin="round"/>
<path d="M45.7676 20.4571H43.4629V11.3946C43.4629 10.6524 43.5085 9.7442 43.5996 8.66998H43.5605C43.4173 9.28196 43.2904 9.72142 43.1797 9.98834L39 20.4571H37.3984L33.209 10.0665C33.0918 9.76048 32.9681 9.29498 32.8379 8.66998H32.7988C32.8509 9.22988 32.877 10.1446 32.877 11.4141V20.4571H30.7285V6.45319H34L37.6816 15.7794C37.9616 16.4955 38.1439 17.0294 38.2285 17.3809H38.2773C38.5182 16.6452 38.7135 16.0984 38.8633 15.7403L42.6133 6.45319H45.7676V20.4571Z" fill="#24272C"/>
<path d="M57.4375 16.0723H50.6211C50.6471 16.9968 50.9303 17.7097 51.4707 18.211C52.0176 18.7123 52.7663 18.963 53.7168 18.963C54.7845 18.963 55.7643 18.6439 56.6562 18.0059V19.8321C55.7448 20.405 54.5404 20.6915 53.043 20.6915C51.5716 20.6915 50.416 20.239 49.5762 19.334C48.7428 18.4226 48.3262 17.1433 48.3262 15.4962C48.3262 13.9402 48.7852 12.6739 49.7031 11.6973C50.6276 10.7143 51.7734 10.2227 53.1406 10.2227C54.5078 10.2227 55.5658 10.6622 56.3145 11.5411C57.0632 12.42 57.4375 13.6407 57.4375 15.2032V16.0723ZM55.25 14.4708C55.2435 13.657 55.0514 13.0255 54.6738 12.5762C54.2962 12.1205 53.7754 11.8926 53.1113 11.8926C52.4603 11.8926 51.9069 12.1303 51.4512 12.6055C51.002 13.0808 50.7253 13.7025 50.6211 14.4708H55.25Z" fill="#24272C"/>
<path d="M64.8691 20.3497C64.4264 20.571 63.8438 20.6817 63.1211 20.6817C61.181 20.6817 60.2109 19.7507 60.2109 17.8887V12.2344H58.541V10.4571H60.2109V8.14264L62.4766 7.49811V10.4571H64.8691V12.2344H62.4766V17.2344C62.4766 17.8269 62.584 18.2501 62.7988 18.504C63.0137 18.7579 63.3717 18.8848 63.873 18.8848C64.2572 18.8848 64.5892 18.7741 64.8691 18.5528V20.3497Z" fill="#24272C"/>
<path d="M74.498 20.4571H72.3008V18.8946H72.2617C71.5716 20.0925 70.5592 20.6915 69.2246 20.6915C68.2415 20.6915 67.4701 20.4245 66.9102 19.8907C66.3568 19.3568 66.0801 18.6505 66.0801 17.7715C66.0801 15.8835 67.1673 14.7833 69.3418 14.4708L72.3105 14.0508C72.3105 12.6251 71.6335 11.9122 70.2793 11.9122C69.0879 11.9122 68.0137 12.3223 67.0566 13.1426V11.1602C68.1113 10.5352 69.3288 10.2227 70.709 10.2227C73.235 10.2227 74.498 11.4662 74.498 13.9532V20.4571ZM72.3105 15.545L70.2109 15.838C69.5599 15.9226 69.0684 16.0821 68.7363 16.3165C68.4108 16.5443 68.248 16.948 68.248 17.5274C68.248 17.9506 68.3978 18.2989 68.6973 18.5723C69.0033 18.8393 69.4102 18.9727 69.918 18.9727C70.6081 18.9727 71.1777 18.7318 71.627 18.2501C72.0827 17.7618 72.3105 17.1498 72.3105 16.4141V15.545Z" fill="#24272C"/>
<path d="M92.5645 20.4571H90.2598V11.3946C90.2598 10.6524 90.3053 9.7442 90.3965 8.66998H90.3574C90.2142 9.28196 90.0872 9.72142 89.9766 9.98834L85.7969 20.4571H84.1953L80.0059 10.0665C79.8887 9.76048 79.765 9.29498 79.6348 8.66998H79.5957C79.6478 9.22988 79.6738 10.1446 79.6738 11.4141V20.4571H77.5254V6.45319H80.7969L84.4785 15.7794C84.7585 16.4955 84.9408 17.0294 85.0254 17.3809H85.0742C85.3151 16.6452 85.5104 16.0984 85.6602 15.7403L89.4102 6.45319H92.5645V20.4571Z" fill="#24272C"/>
<path d="M103.443 20.4571H101.246V18.8946H101.207C100.517 20.0925 99.5046 20.6915 98.1699 20.6915C97.1868 20.6915 96.4154 20.4245 95.8555 19.8907C95.3021 19.3568 95.0254 18.6505 95.0254 17.7715C95.0254 15.8835 96.1126 14.7833 98.2871 14.4708L101.256 14.0508C101.256 12.6251 100.579 11.9122 99.2246 11.9122C98.0332 11.9122 96.959 12.3223 96.002 13.1426V11.1602C97.0566 10.5352 98.2741 10.2227 99.6543 10.2227C102.18 10.2227 103.443 11.4662 103.443 13.9532V20.4571ZM101.256 15.545L99.1562 15.838C98.5052 15.9226 98.0137 16.0821 97.6816 16.3165C97.3561 16.5443 97.1934 16.948 97.1934 17.5274C97.1934 17.9506 97.3431 18.2989 97.6426 18.5723C97.9486 18.8393 98.3555 18.9727 98.8633 18.9727C99.5534 18.9727 100.123 18.7318 100.572 18.2501C101.028 17.7618 101.256 17.1498 101.256 16.4141V15.545Z" fill="#24272C"/>
<path d="M105.592 20.1446V18.045C106.438 18.6895 107.372 19.0118 108.395 19.0118C109.762 19.0118 110.445 18.6081 110.445 17.8008C110.445 17.573 110.387 17.3809 110.27 17.2247C110.152 17.0619 109.993 16.9187 109.791 16.795C109.596 16.6713 109.361 16.5606 109.088 16.463C108.821 16.3653 108.521 16.2546 108.189 16.1309C107.779 15.9682 107.408 15.7956 107.076 15.6133C106.751 15.4311 106.477 15.226 106.256 14.9981C106.041 14.7637 105.878 14.5001 105.768 14.2071C105.657 13.9141 105.602 13.5723 105.602 13.1817C105.602 12.6999 105.715 12.2768 105.943 11.9122C106.171 11.5411 106.477 11.2318 106.861 10.9844C107.245 10.7305 107.682 10.5417 108.17 10.418C108.658 10.2878 109.163 10.2227 109.684 10.2227C110.608 10.2227 111.435 10.3627 112.164 10.6426V12.6251C111.461 12.1433 110.654 11.9024 109.742 11.9024C109.456 11.9024 109.195 11.9317 108.961 11.9903C108.733 12.0489 108.538 12.1303 108.375 12.2344C108.212 12.3386 108.085 12.4656 107.994 12.6153C107.903 12.7585 107.857 12.918 107.857 13.0938C107.857 13.3087 107.903 13.4909 107.994 13.6407C108.085 13.7904 108.219 13.9239 108.395 14.0411C108.577 14.1518 108.792 14.2559 109.039 14.3536C109.293 14.4447 109.583 14.5456 109.908 14.6563C110.338 14.8321 110.722 15.0111 111.061 15.1934C111.406 15.3757 111.699 15.584 111.939 15.8184C112.18 16.0463 112.366 16.3132 112.496 16.6192C112.626 16.9187 112.691 17.2768 112.691 17.6934C112.691 18.2012 112.574 18.6439 112.34 19.0215C112.105 19.3991 111.793 19.7116 111.402 19.959C111.012 20.2064 110.559 20.3887 110.045 20.5059C109.537 20.6296 109 20.6915 108.434 20.6915C107.34 20.6915 106.393 20.5092 105.592 20.1446Z" fill="#24272C"/>
<path d="M123.922 20.4571H121.051L117.164 15.6524H117.125V20.4571H114.85V5.6524H117.125V15.0372H117.164L120.836 10.4571H123.561L119.43 15.2813L123.922 20.4571Z" fill="#24272C"/>
</svg>
