<svg width="85" height="16" viewBox="0 0 85 16" fill="none" xmlns="http://www.w3.org/2000/svg">
<path d="M11.6249 4.15922C12.1924 3.15513 12.7404 2.14009 13.3157 1.14038H16.3931C16.4379 1.14268 16.4824 1.14978 16.5258 1.16156C16.4234 1.31856 16.3376 1.48506 16.2475 1.64863C15.5053 2.99764 14.7653 4.34738 14.0274 5.69785C13.7174 6.24773 13.4289 6.81002 13.1146 7.35697L13.0836 7.36793L13.0778 7.43657C11.6309 10.0655 10.1889 12.6963 8.75161 15.3291C5.9266 15.332 3.10136 15.332 0.275879 15.3291C0.436669 14.9888 0.627021 14.6638 0.805837 14.333C1.61051 12.8346 2.43609 11.3492 3.22923 9.85077C4.96499 9.84784 6.70075 9.84784 8.43652 9.85077C9.50869 7.95943 10.5578 6.05348 11.622 4.15922H11.6249Z" fill="#24272C"/>
<path d="M43.3842 1.10156V15.502H45.8479V5.3757L50.3421 12.045L54.8003 5.21723V15.502H57.3361V1.10156H54.6085L50.3601 7.749L46.0642 1.10156H43.3842Z" fill="#24272C"/>
<path d="M31.86 4.81567H33.4701V15.6233H31.86V4.81567Z" fill="#24272C"/>
<path d="M31.7216 0.811768H33.6085V2.62497H31.7216V0.811768Z" fill="#24272C"/>
<path d="M36.5467 1.71875H38.2289V4.81573H41.5456V6.32515H38.2289V12.7455C38.226 12.9929 38.2826 13.2372 38.394 13.4575C38.6788 14.0052 39.4525 14.6551 41.5456 13.8956V15.2948C41.5456 15.2948 39.6349 16.3901 37.9044 15.3926C37.9044 15.3926 37.0449 15.0231 36.6837 13.7759C36.5899 13.4417 36.5437 13.0957 36.5467 12.7484V6.30105L35.1284 6.32515V4.81573H36.5582L36.5467 1.71875Z" fill="#24272C"/>
<path d="M59.9319 1.10156V15.5992H70.627V13.2624H62.5399V9.41615H69.6658V7.11588H62.5276V3.45296H70.5433V1.10156H59.9319Z" fill="#24272C"/>
<path d="M71.6306 1.10156H74.677L78.174 6.19138L81.6436 1.10156H84.6899L79.7148 8.17181L85 15.5867H81.7914L78.1862 10.1712L74.4066 15.5992H71.3602L76.5697 8.23607L71.6306 1.10156Z" fill="#24272C"/>
<path d="M26.9325 8.07782C26.9325 8.07782 29.2881 7.17742 29.1439 4.58505C29.1439 4.58505 29.1244 2.09198 26.3528 1.3223C25.8919 1.19725 25.4166 1.13536 24.9396 1.13828H18.2924L18.3104 15.5387H25.4666C25.4666 15.5387 29.6544 15.4475 29.9493 11.6684C29.9493 11.6684 30.2492 9.02714 26.9325 8.07782V8.07782ZM20.0106 2.62507H24.2531C27.5814 2.61338 27.4855 4.98668 27.4855 4.98668C27.5353 7.69444 24.481 7.63967 24.481 7.63967H20.0106V2.62507ZM25.202 14.0169H20.0106V9.00304H24.9742C28.3024 8.99063 28.2066 11.3639 28.2066 11.3639C28.2563 14.0717 25.202 14.0169 25.202 14.0169Z" fill="#24272C"/>
</svg>
