<svg width="59" height="24" viewBox="0 0 59 24" fill="none" xmlns="http://www.w3.org/2000/svg">
<path d="M42.0516 17.9651V2.84106H45.0992V17.9651H42.0516Z" fill="#24272C"/>
<path d="M6.53345 22.4577H0V7.33374H6.27072C9.31834 7.33374 11.0941 8.99055 11.0941 11.5822C11.0941 13.2598 9.95364 14.3439 9.16426 14.7048C10.1065 15.1294 11.3126 16.0851 11.3126 18.104C11.3126 20.9282 9.31834 22.4577 6.53345 22.4577ZM6.0295 9.96818H3.04759V13.4518H6.0295C7.32285 13.4518 8.04652 12.7507 8.04652 11.7094C8.04652 10.6693 7.32285 9.96818 6.0295 9.96818ZM6.22654 16.1071H3.04759V19.8244H6.22654C7.60822 19.8244 8.26502 18.9753 8.26502 17.9548C8.26502 16.9355 7.607 16.1071 6.22654 16.1071Z" fill="#24272C"/>
<path d="M20.6081 16.2552V22.4577H17.582V16.2552L12.89 7.33374H16.2003L19.1166 13.4298L21.9886 7.33374H25.2989L20.6081 16.2552Z" fill="#24272C"/>
<path d="M33.939 22.4577H27.4055V7.33374H33.6763C36.7239 7.33374 38.4996 8.99055 38.4996 11.5822C38.4996 13.2598 37.3592 14.3439 36.5698 14.7048C37.512 15.1294 38.7182 16.0851 38.7182 18.104C38.7182 20.9282 36.7239 22.4577 33.939 22.4577ZM33.435 9.96818H30.4531V13.4518H33.435C34.7284 13.4518 35.452 12.7507 35.452 11.7094C35.452 10.6693 34.7284 9.96818 33.435 9.96818ZM33.6321 16.1071H30.4531V19.8244H33.6321C35.0137 19.8244 35.6705 18.9753 35.6705 17.9548C35.6705 16.9355 35.0137 16.1071 33.6321 16.1071Z" fill="#24272C"/>
<path d="M54.9215 9.96818V22.4589H51.874V9.96818H47.7958V7.33374H58.9997V9.96818H54.9215Z" fill="#24272C"/>
</svg>
