<svg width="83" height="22" viewBox="0 0 83 22" fill="none" xmlns="http://www.w3.org/2000/svg">
<g clip-path="url(#clip0_106_178)">
<path d="M14.8161 8.1292C13.9653 7.32631 12.8225 6.87674 11.6324 6.87674C10.4423 6.87674 9.29953 7.32631 8.44874 8.1292C8.03176 8.5311 7.70128 9.0086 7.47633 9.53421C7.25138 10.0598 7.13639 10.6232 7.13799 11.1918C7.1396 11.7605 7.25775 12.3232 7.48566 12.8476C7.71357 13.3721 8.04673 13.8478 8.46597 14.2475C9.31429 15.0602 10.4602 15.5178 11.6556 15.5215C12.851 15.5251 13.9999 15.0744 14.8535 14.2669C14.885 14.2365 15.0085 14.1063 15.2267 13.8736L13.1023 11.8379C12.8841 12.0816 12.7693 12.209 12.7549 12.2201C12.4666 12.4968 12.0764 12.6521 11.6698 12.6521C11.2631 12.6521 10.8729 12.4968 10.5846 12.2201C10.2985 11.949 10.1356 11.5793 10.1318 11.1924C10.1281 10.8055 10.2837 10.4329 10.5645 10.1566C10.8543 9.88717 11.2421 9.73799 11.6446 9.7411C12.0471 9.74421 12.4323 9.89935 12.7176 10.1733L18.396 15.6103C17.6116 16.6928 16.5689 17.5775 15.3558 18.1897C14.1427 18.8019 12.7948 19.1236 11.4257 19.1278C9.98759 19.1283 8.57324 18.7735 7.31737 18.0974C6.0615 17.4213 5.0059 16.4463 4.25108 15.2653C3.49626 14.0842 3.06734 12.7364 3.00515 11.3501C2.94296 9.9639 3.24958 8.58538 3.89582 7.34581C4.54205 6.10625 5.50639 5.0469 6.69702 4.26863C7.88765 3.49036 9.26494 3.01908 10.6978 2.89964C12.1306 2.78021 13.5712 3.0166 14.8826 3.58632C16.1939 4.15604 17.3323 5.04011 18.1893 6.15438C17.9405 6.43504 17.3003 7.13394 16.2688 8.25107L18.373 10.248L21.8409 6.49505C21.0025 4.6855 19.6736 3.12773 17.9942 1.98601C16.3148 0.844289 14.3472 0.160918 12.2989 0.00795186C10.2506 -0.145014 8.19747 0.238094 6.35599 1.11688C4.5145 1.99567 2.95291 3.33757 1.83587 5.00109C0.718823 6.66462 0.087718 8.58813 0.00909735 10.5688C-0.0695233 12.5495 0.407253 14.5139 1.38916 16.255C2.37106 17.9961 3.8217 19.4493 5.58813 20.4614C7.35455 21.4735 9.37131 22.0069 11.4257 22.0056C14.2965 22.0056 16.6707 21.1442 18.9931 19.2358C20.3285 18.1009 21.3906 16.6981 22.105 15.1255L14.8161 8.1292Z" fill="#24272C"/>
<path d="M61.7218 12.4861V17.7486H59.4682V12.3725C59.3436 11.7529 58.9978 11.1951 58.4909 10.7961C57.984 10.3971 57.3482 10.1822 56.6941 10.1888C56.0399 10.1954 55.4089 10.423 54.9108 10.8321C54.4126 11.2413 54.0789 11.8059 53.9678 12.4279V17.7596H51.7142V8.1902L53.4367 9.23716C54.3539 8.4889 55.5169 8.07955 56.718 8.08218C57.9741 8.07171 59.1878 8.51977 60.1158 9.33653C61.0438 10.1533 61.6175 11.2783 61.7218 12.4861V12.4861ZM38.0809 6.97706C37.3363 7.34658 36.6672 7.84297 36.1058 8.44224C35.6564 7.82108 35.0486 7.32225 34.3411 6.99395C33.6335 6.66565 32.8501 6.51898 32.0667 6.56811C31.2832 6.61725 30.5261 6.86053 29.8686 7.27445C29.211 7.68836 28.6752 8.25892 28.313 8.93098C27.9508 9.60303 27.7744 10.3539 27.8008 11.1109C27.8272 11.868 28.0556 12.6057 28.4639 13.2527C28.8721 13.8997 29.4465 14.4342 30.1314 14.8045C30.8163 15.1748 31.5886 15.3684 32.3738 15.3666C33.1647 15.3729 33.9439 15.1821 34.6359 14.8126C34.8815 15.5806 35.2707 16.2987 35.7843 16.9315C34.7355 17.4798 33.5609 17.7655 32.368 17.7624C31.436 17.7806 30.5096 17.6192 29.6431 17.2877C28.7766 16.9562 27.9873 16.4612 27.3215 15.8317C26.6557 15.2022 26.1268 14.4509 25.7657 13.6217C25.4046 12.7926 25.2186 11.9022 25.2186 11.0029C25.2186 10.1035 25.4046 9.21316 25.7657 8.384C26.1268 7.55484 26.6557 6.80352 27.3215 6.17403C27.9873 5.54455 28.7766 5.04956 29.6431 4.71803C30.5096 4.38651 31.436 4.22513 32.368 4.24333C33.4721 4.24096 34.5616 4.48708 35.5498 4.96212C36.538 5.43716 37.3978 6.12803 38.0608 6.97983L38.0809 6.97706ZM41.4311 17.7596C40.4553 17.7487 39.5047 17.4596 38.6989 16.9286C37.893 16.3976 37.268 15.6485 36.9024 14.7756C36.5368 13.9027 36.447 12.9449 36.6443 12.0229C36.8416 11.1008 37.3171 10.2557 38.0111 9.59379C38.7051 8.93191 39.5865 8.48287 40.5444 8.30318C41.5023 8.12348 42.4939 8.22117 43.3944 8.58394C44.2949 8.94671 45.064 9.55836 45.6051 10.3419C46.1461 11.1255 46.4348 12.0459 46.4348 12.9874C46.4311 13.6177 46.2987 14.2412 46.0452 14.8221C45.7917 15.4031 45.4221 15.9302 44.9574 16.3734C44.4928 16.8165 43.9422 17.167 43.3372 17.4049C42.7321 17.6427 42.0844 17.7633 41.4311 17.7596ZM41.4311 15.638C41.9729 15.6315 42.5007 15.4704 42.9479 15.1752C43.3952 14.88 43.7419 14.4638 43.9446 13.9789C44.1473 13.494 44.1968 12.9622 44.0869 12.4502C43.977 11.9382 43.7127 11.469 43.3271 11.1017C42.9416 10.7343 42.452 10.4851 41.9201 10.3855C41.3881 10.2859 40.8375 10.3403 40.3375 10.5419C39.8375 10.7434 39.4104 11.0831 39.11 11.5183C38.8096 11.9534 38.6493 12.4646 38.6493 12.9874C38.6512 13.3378 38.7247 13.6843 38.8655 14.0073C39.0064 14.3302 39.212 14.6232 39.4703 14.8694C39.7287 15.1156 40.0349 15.3102 40.3714 15.4421C40.7078 15.574 41.0679 15.6406 41.4311 15.638V15.638ZM47.8272 8.2179H50.052V17.7596H47.8272V8.2179ZM72.0164 6.52836H65.6547V9.99607H71.8326V12.1481H65.6547V15.6048H72.0164V17.7596H63.2576V4.37351H72.0164V6.52836ZM76.6957 12.968L73.2709 8.2179H76.1015C76.1847 8.35084 76.3082 8.53365 76.4689 8.77184L77.6374 10.4697C77.824 10.7467 77.956 10.9405 78.0335 11.0707L78.1484 11.2591L80.1837 8.22621H82.8794L79.5206 12.8877L83.0086 17.7596H80.2124L78.0565 14.6409L77.9388 14.8043C77.844 14.9373 77.7034 15.145 77.5139 15.4247C77.3244 15.7045 77.1264 16.0008 76.911 16.3111L76.3053 17.2029C76.1445 17.4411 76.0182 17.6267 75.9407 17.7569H73.268L76.6957 12.968Z" fill="#24272C"/>
<path d="M47.4081 5.68349C47.4069 5.49394 47.446 5.30617 47.523 5.1318C47.6 4.95743 47.7134 4.80017 47.8559 4.66977C48.1435 4.39491 48.532 4.24072 48.9368 4.24072C49.3416 4.24072 49.73 4.39491 50.0176 4.66977C50.1634 4.80024 50.279 4.95901 50.3567 5.13563C50.4343 5.31226 50.4724 5.50274 50.4683 5.69457C50.4661 6.08319 50.3045 6.45514 50.0188 6.72916C49.7332 7.00318 49.3468 7.15699 48.944 7.15699C48.7422 7.16024 48.5418 7.12413 48.3548 7.05084C48.1679 6.97754 47.9982 6.86857 47.8559 6.73045C47.7109 6.59489 47.5963 6.43199 47.5192 6.25188C47.4422 6.07177 47.4043 5.8783 47.4081 5.68349V5.68349Z" fill="#24272C"/>
</g>
<defs>
<clipPath id="clip0_106_178">
<rect width="83" height="22" fill="white"/>
</clipPath>
</defs>
</svg>
