<svg width="261" height="53" viewBox="0 0 261 53" fill="none" xmlns="http://www.w3.org/2000/svg">
<g clip-path="url(#clip0_89_104)">
<path d="M15.964 22.27L26.1024 11.9806L36.2449 22.2783L42.1407 16.2881L26.1024 0L10.0641 16.2839L15.964 22.27Z" fill="#F3BA2F"/>
<path d="M-0.00219727 26.5009L5.89561 20.5128L11.7934 26.5009L5.89561 32.489L-0.00219727 26.5009Z" fill="#F3BA2F"/>
<path d="M15.9641 30.73L26.1025 41.0236L36.245 30.7259L42.1449 36.7078L42.1408 36.7119L26.1025 53L10.0642 36.7203L10.0559 36.7119L15.9641 30.73Z" fill="#F3BA2F"/>
<path d="M40.4015 26.5024L46.2993 20.5143L52.1971 26.5024L46.2993 32.4905L40.4015 26.5024Z" fill="#F3BA2F"/>
<path d="M32.0849 26.4979L26.1025 20.4197L21.6785 24.9114L21.1673 25.4263L20.1201 26.4895L20.1118 26.4979L20.1201 26.5105L26.1025 32.5803L32.0849 26.5021L32.089 26.4979H32.0849Z" fill="#F3BA2F"/>
<path d="M61.3992 12.8429H74.2298C77.4128 12.8429 79.8206 13.6801 81.4533 15.3546C82.0684 15.9731 82.5533 16.712 82.8786 17.5266C83.2039 18.3412 83.3629 19.2144 83.3457 20.0932V20.1727C83.3568 20.8927 83.258 21.61 83.053 22.2993C82.8703 22.8926 82.6051 23.4565 82.2655 23.9737C81.9489 24.4614 81.5657 24.9012 81.1276 25.2798C80.6994 25.6539 80.2305 25.9769 79.7299 26.2426C81.1735 26.7531 82.4717 27.6155 83.5106 28.7542C84.4287 29.8147 84.8877 31.2798 84.8877 33.1496V33.2291C84.9138 34.3969 84.6635 35.5539 84.1579 36.6031C83.668 37.5698 82.9498 38.3982 82.0676 39.0143C81.0702 39.6932 79.9595 40.1826 78.7898 40.4585C77.4001 40.7931 75.9755 40.9547 74.5473 40.9399H61.3992V12.8429ZM72.9435 24.2039C74.0536 24.2584 75.1583 24.0159 76.147 23.5007C76.5326 23.272 76.8474 22.9383 77.0558 22.5373C77.2642 22.1363 77.3579 21.6841 77.3262 21.2318V21.1523C77.3466 20.7356 77.2632 20.3204 77.0838 19.945C76.9044 19.5697 76.6346 19.2463 76.2996 19.0048C75.6152 18.5109 74.627 18.2639 73.3352 18.2639H67.3321V24.2039H72.9435ZM74.5638 35.5273C75.6698 35.5902 76.7706 35.3333 77.7385 34.7863C78.1155 34.5404 78.4207 34.1963 78.6223 33.7899C78.8239 33.3835 78.9145 32.9297 78.8847 32.4756V32.3961C78.8995 31.9645 78.8099 31.5359 78.6238 31.1476C78.4376 30.7594 78.1605 30.4234 77.8168 30.1691C77.1077 29.611 75.9615 29.3319 74.3783 29.3319H67.3321V35.5273H74.5638Z" fill="#0E1014"/>
<path d="M92.5316 12.8429H98.6212V40.9483H92.5316V12.8429Z" fill="#0E1014"/>
<path d="M107.836 12.8429H113.452L126.431 30.1398V12.8429H132.442V40.9483H127.259L113.856 23.0821V40.9483H107.836V12.8429Z" fill="#0E1014"/>
<path d="M150.88 12.642H156.487L168.349 40.9483H161.991L159.46 34.644H147.755L145.223 40.9483H139.014L150.88 12.642ZM157.287 29.1854L153.601 20.0681L149.932 29.1854H157.287Z" fill="#0E1014"/>
<path d="M174.933 12.8429H180.549L193.52 30.1398V12.8429H199.531V40.9483H194.348L180.945 23.0821V40.9483H174.933V12.8429Z" fill="#0E1014"/>
<path d="M221.448 41.4422C219.508 41.4591 217.584 41.0775 215.792 40.3203C214.105 39.6131 212.574 38.5703 211.291 37.2532C210.007 35.9361 208.996 34.3715 208.317 32.6514C207.6 30.8523 207.238 28.9282 207.249 26.9877V26.9081C207.217 23.083 208.667 19.3983 211.285 16.6481C212.574 15.3046 214.116 14.2396 215.821 13.5169C217.674 12.7373 219.665 12.3484 221.671 12.3741C222.858 12.3651 224.042 12.473 225.209 12.6964C226.206 12.888 227.182 13.184 228.119 13.5797C228.97 13.9433 229.779 14.4009 230.531 14.9443C231.265 15.4743 231.955 16.0652 232.593 16.7108L228.721 21.2486C227.732 20.3219 226.622 19.5374 225.423 18.9169C224.245 18.3449 222.952 18.0583 221.646 18.0797C220.56 18.0679 219.483 18.291 218.488 18.7342C217.493 19.1773 216.602 19.8304 215.874 20.6499C215.153 21.4674 214.588 22.4143 214.208 23.4421C213.811 24.5282 213.612 25.6784 213.619 26.837V26.9165C213.615 28.0734 213.815 29.2216 214.208 30.3072C214.583 31.3387 215.142 32.2909 215.858 33.1161C216.579 33.9459 217.468 34.6085 218.464 35.0592C219.46 35.5098 220.54 35.738 221.63 35.7282C223.018 35.7726 224.396 35.4693 225.641 34.8449C226.827 34.1888 227.924 33.3782 228.903 32.4338L232.778 36.4105C232.094 37.1646 231.354 37.8644 230.564 38.5036C229.789 39.1263 228.946 39.6585 228.053 40.0901C227.102 40.5448 226.1 40.8808 225.068 41.0906C223.877 41.3331 222.664 41.451 221.448 41.4422V41.4422Z" fill="#0E1014"/>
<path d="M239.965 12.8429H260.798V18.3434H245.955V24.0449H259.025V29.5454H245.976V35.4477H261.004V40.9483H239.977L239.965 12.8429Z" fill="#0E1014"/>
</g>
<defs>
<clipPath id="clip0_89_104">
<rect width="261" height="53" fill="white"/>
</clipPath>
</defs>
</svg>
