<svg width="28" height="28" viewBox="0 0 28 28" fill="none" xmlns="http://www.w3.org/2000/svg">
<circle cx="14" cy="14" r="14" fill="#AC5AFF"/>
<g clip-path="url(#clip0_2239_760)">
<path d="M13.9982 4L13.8672 4.43285V16.9933L13.9982 17.1204L19.9955 13.6741L13.9982 4Z" fill="white"/>
<path d="M13.9973 4L8 13.6741L13.9973 17.1204V11.024V4Z" fill="white"/>
<path d="M13.9957 18.2259L13.9219 18.3133V22.7876L13.9957 22.9972L19.9966 14.7812L13.9957 18.2259Z" fill="white"/>
<path d="M13.9973 22.9973V18.2258L8 14.7812L13.9973 22.9973Z" fill="white"/>
<path d="M14 17.1198L19.9972 13.6735L14 11.0234V17.1198Z" fill="white"/>
<path d="M8 13.6735L13.9972 17.1198V11.0234L8 13.6735Z" fill="white"/>
</g>
<defs>
<clipPath id="clip0_2239_760">
<rect width="12" height="19" fill="white" transform="translate(8 4)"/>
</clipPath>
</defs>
</svg>
