<svg width="130" height="31" viewBox="0 0 130 31" fill="none" xmlns="http://www.w3.org/2000/svg">
<g clip-path="url(#clip0_2239_700)">
<path d="M9.10516 0.671875L8.90625 1.34502V20.8781L9.10516 21.0758L18.2116 15.7163L9.10516 0.671875Z" fill="#B974FF"/>
<path d="M9.11422 0.671875L0.0078125 15.7163L9.11422 21.0758V11.5951V0.671875Z" fill="#8739D8"/>
<path d="M9.10427 22.7904L8.99219 22.9265V29.8846L9.10427 30.2105L18.2162 17.4336L9.10427 22.7904Z" fill="#AC5AFF"/>
<path d="M9.10641 30.2105V22.7904L0 17.4336L9.10641 30.2105Z" fill="#8739D8"/>
<path d="M9.10938 21.0744L18.2156 15.7149L9.10938 11.5938V21.0744Z" fill="#AC5AFF"/>
<path d="M0 15.7149L9.10626 21.0744V11.5938L0 15.7149Z" fill="#6D2DAF"/>
</g>
<path d="M40.2274 24.3681H29.0703V8.60156H40.2274V11.5563H32.4269V14.8893H40.062V17.844H32.4269V21.4133H40.2274V24.3681Z" fill="#181B21"/>
<path d="M46.6099 24.6517C45.554 24.6517 44.7503 24.3838 44.1988 23.8481C43.6472 23.3123 43.3715 22.5401 43.3715 21.5315V15.5748H41.4804V12.9509H43.3715V9.83074H46.3971V12.9509H48.7136V15.5748H46.3971V20.7278C46.3971 21.0903 46.4917 21.3897 46.6808 21.6261C46.8699 21.8625 47.122 21.9807 47.4372 21.9807C47.91 21.9807 48.2566 21.8703 48.4773 21.6497L49.1155 23.919C48.5639 24.4075 47.7287 24.6517 46.6099 24.6517Z" fill="#181B21"/>
<path d="M61.4992 24.3681H58.4972V17.4185C58.4972 16.6621 58.316 16.1263 57.9535 15.8111C57.5911 15.496 57.0631 15.3384 56.3698 15.3384C55.3139 15.3384 54.4472 15.7875 53.7696 16.6857V24.3681H50.7676V8.60156H53.7696V14.4401C54.1793 13.9516 54.7309 13.534 55.4242 13.1873C56.1334 12.8406 56.9213 12.6673 57.788 12.6673C59.0172 12.6673 59.9391 12.9825 60.5537 13.6128C61.184 14.2432 61.4992 15.1256 61.4992 16.2603V24.3681Z" fill="#181B21"/>
<path d="M69.8452 24.6517C68.0803 24.6517 66.6226 24.1002 65.4722 22.9971C64.3218 21.894 63.7467 20.4442 63.7467 18.6477C63.7467 16.9615 64.2982 15.5432 65.4013 14.3929C66.5202 13.2425 67.9385 12.6673 69.6561 12.6673C71.3581 12.6673 72.737 13.2504 73.7928 14.4165C74.8486 15.5669 75.3765 17.0797 75.3765 18.955V19.6169H66.8905C66.9851 20.3733 67.3239 21.0036 67.9069 21.5079C68.49 22.0122 69.2464 22.2643 70.1762 22.2643C70.6805 22.2643 71.2241 22.1619 71.8072 21.957C72.406 21.7522 72.8788 21.4764 73.2255 21.1297L74.5492 23.068C73.3988 24.1238 71.8308 24.6517 69.8452 24.6517ZM72.4691 17.584C72.4218 16.9379 72.1618 16.3548 71.689 15.8348C71.232 15.3147 70.5544 15.0547 69.6561 15.0547C68.8052 15.0547 68.1433 15.3147 67.6706 15.8348C67.1978 16.3391 66.922 16.9221 66.8432 17.584H72.4691Z" fill="#181B21"/>
<path d="M80.547 24.3681H77.5449V12.9509H80.547V14.5111C80.9725 13.9753 81.5161 13.534 82.178 13.1873C82.8399 12.8406 83.5096 12.6673 84.1872 12.6673V15.5984C83.9824 15.5511 83.7066 15.5275 83.3599 15.5275C82.8556 15.5275 82.3198 15.6536 81.7525 15.9057C81.1852 16.1578 80.7833 16.4651 80.547 16.8276V24.3681Z" fill="#181B21"/>
<path d="M91.4287 24.6517C89.6638 24.6517 88.2061 24.1002 87.0557 22.9971C85.9053 21.894 85.3301 20.4442 85.3301 18.6477C85.3301 16.9615 85.8817 15.5432 86.9848 14.3929C88.1037 13.2425 89.5219 12.6673 91.2396 12.6673C92.9416 12.6673 94.3205 13.2504 95.3763 14.4165C96.4321 15.5669 96.96 17.0797 96.96 18.955V19.6169H88.474C88.5685 20.3733 88.9074 21.0036 89.4904 21.5079C90.0735 22.0122 90.8299 22.2643 91.7597 22.2643C92.264 22.2643 92.8076 22.1619 93.3907 21.957C93.9895 21.7522 94.4623 21.4764 94.809 21.1297L96.1327 23.068C94.9823 24.1238 93.4143 24.6517 91.4287 24.6517ZM94.0526 17.584C94.0053 16.9379 93.7453 16.3548 93.2725 15.8348C92.8155 15.3147 92.1379 15.0547 91.2396 15.0547C90.3887 15.0547 89.7268 15.3147 89.254 15.8348C88.7813 16.3391 88.5055 16.9221 88.4267 17.584H94.0526Z" fill="#181B21"/>
<path d="M109.836 24.3681H106.834V22.9262C105.81 24.0766 104.471 24.6517 102.816 24.6517C101.587 24.6517 100.665 24.3366 100.05 23.7062C99.4357 23.0759 99.1284 22.1934 99.1284 21.0588V12.9509H102.13V19.8769C102.13 21.2794 102.832 21.9807 104.234 21.9807C105.29 21.9807 106.157 21.5473 106.834 20.6806V12.9509H109.836V24.3681Z" fill="#181B21"/>
<path d="M130.002 24.3681H126.976V17.1585C126.976 15.9451 126.409 15.3384 125.274 15.3384C124.786 15.3384 124.329 15.4723 123.903 15.7402C123.494 16.0081 123.163 16.3154 122.911 16.6621V24.3681H119.885V17.1585C119.885 15.9451 119.318 15.3384 118.183 15.3384C117.71 15.3384 117.261 15.4723 116.836 15.7402C116.41 16.0081 116.071 16.3233 115.819 16.6857V24.3681H112.817V12.9509H115.819V14.4401C116.103 14.0304 116.599 13.6364 117.308 13.2582C118.018 12.8643 118.766 12.6673 119.554 12.6673C121.209 12.6673 122.265 13.3607 122.722 14.7474C123.084 14.1801 123.62 13.6916 124.329 13.2819C125.054 12.8722 125.826 12.6673 126.645 12.6673C127.717 12.6673 128.544 12.9588 129.127 13.5419C129.71 14.1092 130.002 14.9681 130.002 16.1184V24.3681Z" fill="#181B21"/>
<defs>
<clipPath id="clip0_2239_700">
<rect width="18.2209" height="29.5474" fill="white" transform="translate(0 0.671875)"/>
</clipPath>
</defs>
</svg>
