<svg width="110" height="32" viewBox="0 0 110 32" fill="none" xmlns="http://www.w3.org/2000/svg">
<path d="M13.6002 0L0 7.84945V23.5483L13.6002 31.3978L27.2005 23.5483V7.84945L13.6002 0ZM13.6002 0L0 7.84945V23.5483L13.6002 31.3978L27.2005 23.5483V7.84945L13.6002 0Z" fill="white"/>
<path d="M18.9695 25.2654H17.0344L14.7177 23.1395V22.0493L17.1161 19.7599V16.135L20.2505 14.0908L23.8209 16.7891L18.9695 25.2654ZM10.9565 19.5418L11.3108 16.135L10.1389 13.0824H17.0616L15.9169 16.135L16.244 19.5418H13.573H10.9565ZM12.5373 23.1395L10.2206 25.2927H8.25827L3.37962 16.7891L6.97728 14.1181L10.1389 16.135V19.7599L12.5373 22.0493V23.1395ZM8.23101 6.7865H18.9422L20.2232 12.2375H6.97728L8.23101 6.7865ZM13.6002 0L0 7.84945V23.5483L13.6002 31.3978L27.2005 23.5483V7.84945L13.6002 0Z" fill="#03316C"/>
<path d="M42.4633 22.976C38.8657 22.976 36.2219 20.1687 36.2219 16.7074C36.2219 13.246 38.8929 10.3569 42.4906 10.3569C44.78 10.3569 46.1973 11.2018 47.3147 12.4283L45.5976 14.2817C44.7527 13.3822 43.8533 12.7826 42.4633 12.7826C40.4464 12.7826 38.9747 14.527 38.9747 16.6528C38.9747 18.8332 40.4737 20.5776 42.5996 20.5776C43.9078 20.5776 44.8618 19.9507 45.7339 19.0785L47.3965 20.7411C46.1973 22.0221 44.8073 22.976 42.4633 22.976Z" fill="#24272C"/>
<path d="M52.6567 22.976H49.8767V10.3842H52.6567V13.3277C53.4199 11.5289 54.8099 10.2751 56.9358 10.3842V13.3277H56.7722C54.3465 13.3277 52.6567 14.9085 52.6567 18.1246V22.976Z" fill="#24272C"/>
<path d="M71.4625 10.3297L65.3301 26.3557H62.5229L63.8584 22.976L58.5981 10.3297H61.5689L65.1394 19.6782L68.5735 10.3297H71.4625Z" fill="#24272C"/>
<path d="M79.6391 12.7554C77.7585 12.7554 76.1232 14.2817 76.1232 16.6529C76.1232 19.0241 77.7858 20.5503 79.6391 20.5503C81.547 20.5503 83.1005 19.0513 83.1005 16.6529C83.1005 14.2544 81.5197 12.7554 79.6391 12.7554ZM80.266 22.9488C78.2764 22.9488 77.0226 21.9403 76.1777 20.8229V26.3557H73.3977V10.3297H76.1777V12.5919C77.0771 11.3381 78.3309 10.3297 80.266 10.3297C83.1277 10.3297 85.9078 12.5919 85.9078 16.6256C85.9078 20.6594 83.155 22.9488 80.266 22.9488Z" fill="#24272C"/>
<path d="M91.9855 12.9733V18.9149C91.9855 19.9778 92.5306 20.4139 93.4845 20.4139H94.5747V22.8941H92.6669C90.65 22.8941 89.2055 21.9947 89.2055 19.3509V12.9733H87.6792V10.6021H89.2055V7.27698H91.9855V10.6021H94.5747V12.9733H91.9855Z" fill="#24272C"/>
<path d="M103.324 12.7554C101.089 12.7554 99.6715 14.4997 99.6715 16.6256C99.6715 18.7787 101.198 20.5503 103.351 20.5503C105.586 20.5503 107.003 18.806 107.003 16.6801C107.058 14.527 105.504 12.7554 103.324 12.7554ZM103.324 22.976C99.6442 22.976 96.9187 20.1687 96.9187 16.7074C96.9187 13.2187 99.6715 10.3569 103.378 10.3569C107.085 10.3569 109.81 13.1642 109.81 16.6528C109.81 20.087 107.085 22.976 103.324 22.976Z" fill="#24272C"/>
</svg>
