<svg width="36" height="36" viewBox="0 0 36 36" fill="none" xmlns="http://www.w3.org/2000/svg">
<circle cx="17.814" cy="17.814" r="17.814" fill="#F3BA2F"/>
<path d="M13.717 15.5492L18.3876 10.8146L23.06 15.5531L25.7761 12.7967L18.3876 5.30176L10.999 12.7947L13.717 15.5492Z" fill="black"/>
<path d="M6.3623 17.4963L9.07931 14.7409L11.7963 17.4963L9.07931 20.2517L6.3623 17.4963Z" fill="black"/>
<path d="M13.7189 19.4424L18.3894 24.1789L23.0619 19.4404L25.7799 22.193L25.778 22.1949L18.3894 29.6898L11.0009 22.1988L10.9971 22.1949L13.7189 19.4424Z" fill="black"/>
<path d="M24.9766 17.4963L27.6936 14.7409L30.4106 17.4963L27.6936 20.2517L24.9766 17.4963Z" fill="black"/>
<path d="M21.1437 17.4949L18.3877 14.698L16.3497 16.7648L16.1142 17.0018L15.6317 17.491L15.6279 17.4949L15.6317 17.5006L18.3877 20.2937L21.1437 17.4968L21.1456 17.4949H21.1437Z" fill="black"/>
</svg>
