<svg width="139" height="36" viewBox="0 0 139 36" fill="none" xmlns="http://www.w3.org/2000/svg">
<circle cx="17.814" cy="17.814" r="17.814" fill="#F3BA2F"/>
<path d="M13.717 15.5492L18.3876 10.8146L23.06 15.5531L25.7761 12.7967L18.3876 5.30176L10.999 12.7947L13.717 15.5492Z" fill="black"/>
<path d="M6.3623 17.4963L9.07931 14.7409L11.7963 17.4963L9.07931 20.2517L6.3623 17.4963Z" fill="black"/>
<path d="M13.7189 19.4424L18.3894 24.1789L23.0619 19.4404L25.7799 22.193L25.778 22.1949L18.3894 29.6898L11.0009 22.1988L10.9971 22.1949L13.7189 19.4424Z" fill="black"/>
<path d="M24.9766 17.4963L27.6936 14.7409L30.4106 17.4963L27.6936 20.2517L24.9766 17.4963Z" fill="black"/>
<path d="M21.1437 17.4949L18.3877 14.698L16.3497 16.7648L16.1142 17.0018L15.6317 17.491L15.6279 17.4949L15.6317 17.5006L18.3877 20.2937L21.1437 17.4968L21.1456 17.4949H21.1437Z" fill="black"/>
<path d="M42.5256 26L44.9403 11.4545H50.5085C51.5597 11.4545 52.4072 11.6203 53.0511 11.9517C53.6951 12.2784 54.1425 12.7259 54.3935 13.294C54.6491 13.8622 54.7154 14.5062 54.5923 15.2259C54.4929 15.813 54.294 16.3172 53.9957 16.7386C53.7022 17.1553 53.3423 17.4962 52.9162 17.7614C52.4901 18.0218 52.0331 18.2088 51.5455 18.3224L51.517 18.4645C52.0284 18.4882 52.4972 18.6444 52.9233 18.9332C53.3494 19.2221 53.6714 19.6293 53.8892 20.1548C54.107 20.6757 54.1567 21.303 54.0384 22.0369C53.9105 22.7898 53.6146 23.4669 53.1506 24.0682C52.6866 24.6648 52.0568 25.1359 51.2614 25.4815C50.4706 25.8272 49.5213 26 48.4134 26H42.5256ZM45.5298 23.7983H48.3636C49.3153 23.7983 50.035 23.616 50.5227 23.2514C51.0104 22.8821 51.3016 22.4086 51.3963 21.831C51.4673 21.4001 51.4247 21.0118 51.2685 20.6662C51.1122 20.3158 50.8542 20.0412 50.4943 19.8423C50.1345 19.6387 49.6847 19.5369 49.1449 19.5369H46.233L45.5298 23.7983ZM46.5597 17.6406H49.1662C49.6207 17.6406 50.0421 17.5578 50.4304 17.392C50.8234 17.2216 51.1501 16.9825 51.4105 16.6747C51.6757 16.3622 51.839 15.9929 51.9006 15.5668C52 15.0033 51.8816 14.5393 51.5455 14.1747C51.2093 13.8101 50.6553 13.6278 49.8835 13.6278H47.2131L46.5597 17.6406ZM70.038 11.4545L67.6232 26H65.2795L60.0735 16.0923H59.9599L58.305 26H55.6701L58.0849 11.4545H60.4428L65.6417 21.3693H65.7766L67.4173 11.4545H70.038ZM70.4943 26L72.9091 11.4545H78.4773C79.5284 11.4545 80.3759 11.6203 81.0199 11.9517C81.6638 12.2784 82.1113 12.7259 82.3622 13.294C82.6179 13.8622 82.6842 14.5062 82.5611 15.2259C82.4616 15.813 82.2628 16.3172 81.9645 16.7386C81.6709 17.1553 81.3111 17.4962 80.8849 17.7614C80.4588 18.0218 80.0019 18.2088 79.5142 18.3224L79.4858 18.4645C79.9972 18.4882 80.4659 18.6444 80.892 18.9332C81.3182 19.2221 81.6402 19.6293 81.858 20.1548C82.0758 20.6757 82.1255 21.303 82.0071 22.0369C81.8793 22.7898 81.5833 23.4669 81.1193 24.0682C80.6553 24.6648 80.0256 25.1359 79.2301 25.4815C78.4394 25.8272 77.4901 26 76.3821 26H70.4943ZM73.4986 23.7983H76.3324C77.2841 23.7983 78.0038 23.616 78.4915 23.2514C78.9792 22.8821 79.2704 22.4086 79.3651 21.831C79.4361 21.4001 79.3935 21.0118 79.2372 20.6662C79.081 20.3158 78.8229 20.0412 78.4631 19.8423C78.1032 19.6387 77.6534 19.5369 77.1136 19.5369H74.2017L73.4986 23.7983ZM74.5284 17.6406H77.1349C77.5895 17.6406 78.0109 17.5578 78.3991 17.392C78.7921 17.2216 79.1188 16.9825 79.3793 16.6747C79.6444 16.3622 79.8078 15.9929 79.8693 15.5668C79.9688 15.0033 79.8504 14.5393 79.5142 14.1747C79.178 13.8101 78.6241 13.6278 77.8523 13.6278H75.1818L74.5284 17.6406ZM102.634 16.3622H100.02C100.02 15.9266 99.9492 15.5407 99.8072 15.2045C99.6651 14.8636 99.4663 14.5748 99.2106 14.3381C98.9549 14.1013 98.6519 13.9238 98.3015 13.8054C97.9511 13.6823 97.5629 13.6207 97.1367 13.6207C96.3223 13.6207 95.5647 13.8267 94.864 14.2386C94.1632 14.6506 93.569 15.2495 93.0813 16.0355C92.5936 16.8168 92.2551 17.7661 92.0657 18.8835C91.8905 19.9725 91.9071 20.884 92.1154 21.6179C92.3285 22.3518 92.6978 22.9058 93.2234 23.2798C93.7489 23.6491 94.3881 23.8338 95.141 23.8338C95.6003 23.8338 96.0406 23.777 96.462 23.6634C96.8834 23.545 97.2717 23.3722 97.6268 23.1449C97.9866 22.9129 98.3015 22.6312 98.5714 22.2997C98.846 21.9683 99.0591 21.5919 99.2106 21.1705H101.86C101.642 21.8617 101.322 22.5128 100.901 23.1236C100.48 23.7296 99.9729 24.2647 99.381 24.7287C98.7892 25.188 98.1263 25.5478 97.3924 25.8082C96.6585 26.0687 95.8678 26.1989 95.0202 26.1989C93.7182 26.1989 92.6031 25.8958 91.6751 25.2898C90.7518 24.679 90.0889 23.8054 89.6864 22.669C89.284 21.5279 89.2129 20.1619 89.4734 18.571C89.7338 17.0227 90.2357 15.7041 90.979 14.6151C91.7272 13.526 92.6386 12.6951 93.7134 12.1222C94.793 11.5445 95.9554 11.2557 97.2006 11.2557C98.0245 11.2557 98.7726 11.3693 99.445 11.5966C100.122 11.8239 100.702 12.1577 101.185 12.598C101.668 13.0336 102.035 13.5687 102.286 14.2031C102.542 14.8329 102.658 15.5526 102.634 16.3622ZM117.639 18.8977C117.384 20.4413 116.879 21.7576 116.126 22.8466C115.378 23.9309 114.464 24.7618 113.385 25.3395C112.31 25.9124 111.152 26.1989 109.912 26.1989C108.61 26.1989 107.492 25.8958 106.56 25.2898C105.627 24.679 104.955 23.8054 104.543 22.669C104.135 21.5327 104.064 20.169 104.33 18.5781C104.585 17.0393 105.087 15.723 105.835 14.6293C106.583 13.5355 107.5 12.6998 108.584 12.1222C109.668 11.5445 110.838 11.2557 112.092 11.2557C113.385 11.2557 114.493 11.5611 115.416 12.1719C116.344 12.7779 117.012 13.6515 117.419 14.7926C117.831 15.9337 117.904 17.3021 117.639 18.8977ZM115.047 18.5781C115.222 17.5033 115.205 16.5966 114.997 15.858C114.794 15.1193 114.431 14.563 113.911 14.1889C113.39 13.8101 112.748 13.6207 111.986 13.6207C111.162 13.6207 110.4 13.8267 109.699 14.2386C109.003 14.6458 108.411 15.2424 107.923 16.0284C107.44 16.8144 107.109 17.7708 106.929 18.8977C106.74 19.9773 106.751 20.884 106.964 21.6179C107.178 22.3518 107.547 22.9058 108.072 23.2798C108.598 23.6491 109.24 23.8338 109.997 23.8338C110.816 23.8338 111.574 23.6302 112.27 23.223C112.966 22.8158 113.555 22.2216 114.038 21.4403C114.526 20.6591 114.862 19.705 115.047 18.5781ZM124.001 11.4545L121.586 26H118.951L121.366 11.4545H124.001ZM138.808 11.4545L136.393 26H134.049L128.843 16.0923H128.729L127.075 26H124.44L126.854 11.4545H129.212L134.411 21.3693H134.546L136.187 11.4545H138.808Z" fill="black"/>
</svg>
