<svg width="28" height="28" viewBox="0 0 28 28" fill="none" xmlns="http://www.w3.org/2000/svg">
<ellipse cx="14.0002" cy="14.2268" rx="10.7059" ry="10.8791" fill="white"/>
<path fill-rule="evenodd" clip-rule="evenodd" d="M10.612 27.5809C18.1138 29.4511 25.7109 24.8868 27.581 17.3868C29.451 9.88635 24.8865 2.2888 17.3852 0.418944C9.8857 -1.45091 2.28857 3.11391 0.419371 10.6148C-1.45158 18.1143 3.11335 25.711 10.612 27.5809ZM17.0932 8.47372C19.0329 9.14178 20.4514 10.1432 20.1727 12.0061C19.971 13.3697 19.2149 14.0299 18.2112 14.2614C19.5894 14.9788 20.2908 16.0791 19.6227 17.9866C18.7935 20.3557 16.8237 20.5556 14.2041 20.0599L13.5684 22.6075L12.0321 22.2246L12.6596 19.7112C12.2614 19.6124 11.8545 19.5074 11.4353 19.3936L10.8057 21.9188L9.27122 21.536L9.90696 18.9837C9.76354 18.9469 9.61922 18.9093 9.47388 18.8714C9.25561 18.8145 9.03504 18.757 8.81178 18.7011L6.81263 18.2028L7.57528 16.4445C7.57528 16.4445 8.70722 16.7454 8.6919 16.7231C9.12682 16.8308 9.31977 16.5473 9.3959 16.3583L10.4005 12.3311C10.4382 12.3402 10.4751 12.3494 10.5107 12.3583C10.5284 12.3628 10.5458 12.3671 10.5629 12.3714C10.5016 12.3469 10.446 12.3311 10.4031 12.3202L11.1198 9.44539C11.1387 9.11902 11.0262 8.70734 10.404 8.55203C10.4281 8.53584 9.28828 8.27465 9.28828 8.27465L9.69694 6.63404L11.8155 7.16298L11.8138 7.17086C12.1323 7.25005 12.4605 7.32529 12.7948 7.40141L13.4244 4.87881L14.9597 5.26162L14.3428 7.73479C14.755 7.82886 15.1698 7.92379 15.5736 8.02441L16.1862 5.56744L17.7224 5.95024L17.0932 8.47372ZM12.234 17.6229C13.4875 17.954 16.2271 18.6775 16.6627 16.9275C17.109 15.1381 14.452 14.542 13.1556 14.2511C13.0107 14.2186 12.8828 14.1899 12.7781 14.1638L11.9345 17.5452C12.0205 17.5665 12.1213 17.5931 12.234 17.6229ZM13.4161 12.6819C14.4611 12.9608 16.7408 13.5691 17.1379 11.9785C17.5433 10.3516 15.3277 9.86117 14.2457 9.62165C14.124 9.59471 14.0166 9.57094 13.9289 9.54909L13.1641 12.6159C13.2363 12.6339 13.3211 12.6566 13.4161 12.6819Z" fill="#FF7F0A"/>
</svg>
