<svg width="101" height="21" viewBox="0 0 101 21" fill="none" xmlns="http://www.w3.org/2000/svg">
<path fill-rule="evenodd" clip-rule="evenodd" d="M7.99217 20.6855C13.6419 22.0882 19.3635 18.665 20.7719 13.04C22.1803 7.41472 18.7427 1.71659 13.0933 0.314206C7.44516 -1.08818 1.72358 2.33542 0.315838 7.96104C-1.09322 13.5857 2.34474 19.2831 7.99217 20.6855ZM12.8742 6.35582C14.335 6.85686 15.4033 7.60792 15.1934 9.00506C15.0415 10.0278 14.472 10.5229 13.7161 10.6965C14.7541 11.2346 15.2824 12.0598 14.7792 13.4905C14.1547 15.2672 12.6712 15.4172 10.6983 15.0454L10.2195 16.9561L9.06254 16.669L9.53508 14.7839C9.23521 14.7098 8.92875 14.631 8.61306 14.5457L8.13888 16.4396L6.98323 16.1525L7.46202 14.2382C7.35402 14.2107 7.24534 14.1825 7.13588 14.154C6.97149 14.1114 6.80536 14.0682 6.63722 14.0263L5.13161 13.6525L5.70598 12.3338C5.70598 12.3338 6.55847 12.5596 6.54693 12.5428C6.87448 12.6236 7.0198 12.4109 7.07713 12.2692L7.83373 9.24885C7.86211 9.25563 7.88989 9.26257 7.9167 9.26926C7.93006 9.2726 7.94317 9.27587 7.95599 9.27904C7.90986 9.26066 7.868 9.24885 7.83571 9.24064L8.37547 7.08456C8.38964 6.83979 8.30496 6.53103 7.83637 6.41455C7.85449 6.40241 6.99608 6.20652 6.99608 6.20652L7.30385 4.97607L8.89942 5.37277L8.8981 5.37868C9.138 5.43807 9.38514 5.4945 9.6369 5.55159L10.1111 3.65965L11.2674 3.94676L10.8028 5.80162C11.1132 5.87217 11.4256 5.94337 11.7297 6.01883L12.1911 4.17611L13.348 4.46322L12.8742 6.35582ZM9.21461 13.2177C10.1587 13.466 12.2219 14.0086 12.5499 12.6961C12.886 11.3541 10.885 10.907 9.90862 10.6888C9.79952 10.6644 9.70321 10.6429 9.62438 10.6233L8.98905 13.1594C9.05379 13.1754 9.12967 13.1953 9.21461 13.2177ZM10.1048 9.51193C10.8919 9.72108 12.6087 10.1773 12.9078 8.98438C13.2132 7.76421 11.5445 7.39639 10.7296 7.21676C10.6379 7.19655 10.5571 7.17873 10.491 7.16234L9.91502 9.46245C9.96943 9.47595 10.0333 9.49292 10.1048 9.51193Z" fill="#FF993A"/>
<path d="M30.9016 6.3524C31.7567 6.3524 32.4955 6.50497 33.1163 6.80454C33.7401 7.10707 34.2548 7.5146 34.6677 8.02712C35.075 8.54227 35.3782 9.14437 35.5739 9.83441C35.7684 10.5264 35.8659 11.2703 35.8659 12.0666C35.8659 13.2898 35.6408 14.4455 35.1864 15.5348C34.732 16.6258 34.1155 17.5721 33.3312 18.3793C32.5476 19.1855 31.6223 19.8211 30.5553 20.2906C29.4899 20.7605 28.3316 20.9954 27.088 20.9954C26.9272 20.9954 26.6444 20.9908 26.245 20.9826C25.8457 20.9744 25.3866 20.9334 24.8726 20.8642C24.3552 20.7923 23.8082 20.686 23.2305 20.5436C22.6532 20.4038 22.1049 20.2079 21.5885 19.9592L26.2058 0.64082L30.3414 0.00262451L28.6882 6.85804C29.0421 6.69923 29.3986 6.57617 29.7545 6.4866C30.1107 6.39833 30.493 6.3524 30.9016 6.3524ZM27.4327 17.7286C28.0555 17.7286 28.6423 17.5761 29.1936 17.2765C29.7466 16.9766 30.2238 16.5717 30.6235 16.0674C31.0232 15.5608 31.3395 14.9902 31.5702 14.3526C31.8009 13.7151 31.9175 13.05 31.9175 12.358C31.9175 11.5078 31.7748 10.8447 31.4904 10.3653C31.2061 9.88789 30.6798 9.64771 29.9156 9.64771C29.6652 9.64771 29.3426 9.69528 28.9425 9.78026C28.5412 9.8705 28.182 10.0579 27.86 10.3397L26.0997 17.62C26.2058 17.6387 26.2997 17.6565 26.3798 17.6732C26.4582 17.6912 26.5449 17.704 26.6312 17.7129C26.7225 17.7231 26.827 17.7283 26.9532 17.7283C27.0794 17.7283 27.2372 17.7286 27.4327 17.7286Z" fill="black"/>
<path d="M40.1562 20.6255H36.2062L39.542 6.64855H43.5191L40.1562 20.6255ZM42.0784 4.94561C41.5271 4.94561 41.0272 4.7822 40.5836 4.45474C40.1365 4.12924 39.915 3.62821 39.915 2.95293C39.915 2.5815 39.9908 2.23303 40.1411 1.90426C40.2937 1.57614 40.493 1.29363 40.7428 1.05345C40.9923 0.815233 41.2813 0.62492 41.6095 0.481531C41.9396 0.34044 42.2909 0.269897 42.6653 0.269897C43.2162 0.269897 43.7135 0.433302 44.1587 0.760766C44.6022 1.08987 44.8253 1.59091 44.8253 2.26257C44.8253 2.63531 44.7499 2.98509 44.5983 3.31321C44.4477 3.64133 44.2483 3.92383 43.9985 4.16402C43.7511 4.40256 43.4594 4.59222 43.1319 4.73429C42.8014 4.87768 42.4514 4.94561 42.0784 4.94561Z" fill="black"/>
<path d="M46.9811 3.16792L51.1183 2.52972L50.1024 6.6496H54.5332L53.7331 9.89076H49.329L48.1559 14.7798C48.0478 15.1873 47.9865 15.5679 47.9694 15.9216C47.9499 16.277 47.9951 16.5821 48.1019 16.839C48.208 17.0966 48.3988 17.2951 48.6756 17.4356C48.9511 17.5783 49.3455 17.6501 49.8629 17.6501C50.2889 17.6501 50.7041 17.6098 51.1055 17.5297C51.5046 17.451 51.9089 17.3414 52.3182 17.198L52.6128 20.2285C52.0789 20.4234 51.5009 20.5911 50.8781 20.7322C50.2543 20.8752 49.5159 20.9441 48.6624 20.9441C47.4352 20.9441 46.4839 20.7627 45.806 20.4014C45.1292 20.0376 44.6507 19.5405 44.3644 18.9111C44.082 18.2841 43.9558 17.5612 43.991 16.7468C44.0276 15.9305 44.1512 15.0724 44.3644 14.1688L46.9811 3.16792Z" fill="black"/>
<path d="M54.3572 15.045C54.3572 13.8411 54.553 12.7059 54.9441 11.6431C55.3346 10.5793 55.8971 9.64909 56.627 8.85077C57.3543 8.05639 58.2404 7.42706 59.2833 6.96506C60.3214 6.5057 61.4836 6.27405 62.7645 6.27405C63.5662 6.27405 64.2823 6.34952 64.9123 6.50078C65.545 6.65336 66.1174 6.85056 66.6351 7.09796L65.2728 10.1823C64.9169 10.0386 64.5475 9.91191 64.1656 9.79707C63.7834 9.67993 63.3168 9.6235 62.7648 9.6235C61.4464 9.6235 60.4041 10.076 59.6284 10.978C58.8556 11.8806 58.4664 13.0957 58.4664 14.6198C58.4664 15.5231 58.6622 16.2535 59.055 16.8123C59.4458 17.3711 60.1678 17.649 61.216 17.649C61.7334 17.649 62.2326 17.5952 62.7108 17.4902C63.1925 17.3839 63.6179 17.25 63.9926 17.0918L64.2875 20.2536C63.788 20.4465 63.237 20.6208 62.6327 20.7733C62.027 20.9207 61.306 20.9971 60.47 20.9971C59.3664 20.9971 58.4322 20.8363 57.668 20.5197C56.9035 20.1982 56.2718 19.7713 55.7742 19.2305C55.274 18.6885 54.9148 18.0555 54.6927 17.3291C54.4706 16.6033 54.3572 15.8407 54.3572 15.045Z" fill="black"/>
<path d="M71.9024 20.9971C70.9596 20.9971 70.1407 20.8541 69.4461 20.5709C68.7534 20.2877 68.1797 19.8904 67.7259 19.3752C67.2715 18.8627 66.9314 18.2553 66.6985 17.5555C66.4655 16.8559 66.3535 16.0812 66.3535 15.2324C66.3535 14.1676 66.5251 13.1032 66.8721 12.0417C67.2175 10.978 67.7299 10.0222 68.408 9.17266C69.0809 8.32185 69.911 7.62623 70.8884 7.08384C71.8648 6.54507 72.9878 6.27405 74.2492 6.27405C75.1749 6.27405 75.9895 6.41743 76.6937 6.7006C77.3946 6.98311 77.9719 7.38375 78.4283 7.89627C78.8798 8.41142 79.2228 9.01615 79.4534 9.71701C79.6858 10.4153 79.8005 11.1919 79.8005 12.0414C79.8005 13.1029 79.6311 14.1673 79.295 15.232C78.9585 16.2915 78.4593 17.2497 77.8002 18.1011C77.1425 18.9506 76.32 19.6459 75.3321 20.186C74.3455 20.7261 73.2013 20.9971 71.9024 20.9971ZM73.8766 9.62383C73.291 9.62383 72.7733 9.79313 72.3301 10.1275C71.8852 10.4658 71.5115 10.891 71.2103 11.4039C70.9059 11.919 70.6801 12.4808 70.5276 13.0914C70.3763 13.7033 70.3022 14.2818 70.3022 14.8314C70.3022 15.7183 70.4458 16.409 70.7283 16.9061C71.0146 17.4006 71.529 17.6493 72.2767 17.6493C72.8642 17.6493 73.3793 17.4813 73.8251 17.1434C74.2674 16.8077 74.6414 16.3821 74.9449 15.8683C75.2474 15.3557 75.4751 14.7924 75.6276 14.1808C75.7769 13.5708 75.8531 12.989 75.8531 12.4404C75.8531 11.5558 75.71 10.8635 75.425 10.367C75.1403 9.87254 74.6236 9.62383 73.8766 9.62383Z" fill="black"/>
<path d="M84.1059 20.6255H80.1526L83.4884 6.64855H87.4674L84.1059 20.6255ZM86.0251 4.94561C85.4741 4.94561 84.9745 4.7822 84.5317 4.45474C84.0868 4.12924 83.8634 3.62821 83.8634 2.95293C83.8634 2.5815 83.9401 2.23303 84.0907 1.90426C84.2413 1.57614 84.442 1.29363 84.6918 1.05345C84.9399 0.815233 85.2316 0.62492 85.5591 0.481531C85.8873 0.34044 86.2386 0.269897 86.6116 0.269897C87.1639 0.269897 87.6628 0.433302 88.107 0.760766C88.5516 1.08987 88.776 1.59091 88.776 2.26257C88.776 2.63531 88.6962 2.98509 88.5469 3.31321C88.3977 3.64133 88.197 3.92383 87.9482 4.16402C87.6977 4.40256 87.4097 4.59222 87.0815 4.73429C86.7507 4.87768 86.4001 4.94561 86.0251 4.94561Z" fill="black"/>
<path d="M90.3129 7.28475C90.6128 7.19747 90.9476 7.09247 91.3117 6.97829C91.6772 6.8641 92.0855 6.7578 92.5415 6.66198C92.9927 6.56322 93.5018 6.48316 94.0617 6.42114C94.6215 6.35781 95.2595 6.32697 95.9683 6.32697C98.0515 6.32697 99.4876 6.93104 100.28 8.13557C101.073 9.3401 101.21 10.9886 100.696 13.078L98.8787 20.6248H94.9026L96.6636 13.2368C96.771 12.7755 96.8554 12.3296 96.9177 11.8938C96.9806 11.462 96.977 11.0814 96.9035 10.752C96.8333 10.4265 96.6679 10.1601 96.4112 9.95368C96.1505 9.75057 95.7567 9.64853 95.2226 9.64853C94.7075 9.64853 94.1836 9.70365 93.6487 9.80997L91.0597 20.6245H87.0819L90.3129 7.28475Z" fill="black"/>
</svg>
