<svg width="212" height="43" viewBox="0 0 212 43" fill="none" xmlns="http://www.w3.org/2000/svg">
<g clip-path="url(#clip0_2580_143)">
<path d="M12.972 18.0681L21.207 9.72009L29.4453 18.0749L34.2343 13.2148L21.207 0L8.17969 13.2114L12.972 18.0681Z" fill="#F3BA2F"/>
<path d="M0 21.5L4.79055 16.6417L9.5811 21.5L4.79055 26.3583L0 21.5Z" fill="#F3BA2F"/>
<path d="M12.9709 24.9331L21.2059 33.2845L29.4442 24.9297L34.2365 29.7829L34.2332 29.7863L21.2059 43.0012L8.17857 29.7931L8.17188 29.7863L12.9709 24.9331Z" fill="#F3BA2F"/>
<path d="M32.8203 21.5L37.6109 16.6417L42.4014 21.5L37.6109 26.3583L32.8203 21.5Z" fill="#F3BA2F"/>
<path d="M26.0612 21.4978L21.2019 16.5664L17.6085 20.2106L17.1933 20.6283L16.3426 21.491L16.3359 21.4978L16.3426 21.508L21.2019 26.4325L26.0612 21.5012L26.0645 21.4978H26.0612Z" fill="#F3BA2F"/>
<path d="M49.875 10.4219H60.2968C62.8822 10.4219 64.838 11.1011 66.1642 12.4596C66.6638 12.9614 67.0577 13.561 67.3219 14.2219C67.5862 14.8827 67.7152 15.5912 67.7013 16.3042V16.3687C67.7103 16.9528 67.6301 17.5348 67.4635 18.094C67.3152 18.5754 67.0998 19.0329 66.8239 19.4525C66.5667 19.8482 66.2555 20.205 65.8996 20.5121C65.5518 20.8157 65.1709 21.0778 64.7643 21.2933C65.9369 21.7075 66.9914 22.4072 67.8353 23.331C68.581 24.1914 68.9538 25.3801 68.9538 26.8971V26.9616C68.975 27.909 68.7717 28.8478 68.361 29.699C67.9631 30.4833 67.3798 31.1554 66.6631 31.6553C65.853 32.2061 64.9509 32.6031 64.0008 32.827C62.8719 33.0984 61.7148 33.2296 60.5547 33.2175H49.875V10.4219ZM59.252 19.6393C60.1537 19.6835 61.051 19.4868 61.8541 19.0687C62.1673 18.8832 62.423 18.6124 62.5923 18.2871C62.7616 17.9618 62.8376 17.5949 62.8119 17.228V17.1634C62.8285 16.8254 62.7608 16.4885 62.615 16.184C62.4693 15.8795 62.2502 15.6171 61.978 15.4212C61.4221 15.0204 60.6195 14.82 59.5701 14.82H54.6941V19.6393H59.252ZM60.5681 28.8262C61.4664 28.8772 62.3606 28.6688 63.1468 28.225C63.453 28.0255 63.701 27.7463 63.8647 27.4166C64.0284 27.0869 64.102 26.7187 64.0778 26.3503V26.2858C64.0898 25.9357 64.0171 25.5879 63.8659 25.2729C63.7147 24.9579 63.4896 24.6853 63.2104 24.479C62.6344 24.0261 61.7034 23.7997 60.4174 23.7997H54.6941V28.8262H60.5681Z" fill="white"/>
<path d="M75.1641 10.4219H80.1104V33.2243H75.1641V10.4219Z" fill="white"/>
<path d="M87.5938 10.4219H92.155L102.697 24.4552V10.4219H107.58V33.2243H103.37L92.4832 18.7291V33.2243H87.5938V10.4219Z" fill="white"/>
<path d="M122.56 10.2578H127.115L136.749 33.2233H131.585L129.529 28.1085H120.022L117.965 33.2233H112.922L122.56 10.2578ZM127.764 23.6798L124.77 16.2828L121.79 23.6798H127.764Z" fill="white"/>
<path d="M142.094 10.4219H146.655L157.191 24.4552V10.4219H162.073V33.2243H157.864L146.976 18.7291V33.2243H142.094V10.4219Z" fill="white"/>
<path d="M179.878 33.6236C178.301 33.6373 176.739 33.3277 175.283 32.7134C173.913 32.1397 172.67 31.2936 171.627 30.225C170.584 29.1564 169.763 27.887 169.212 26.4915C168.63 25.0318 168.335 23.4708 168.344 21.8964V21.8318C168.318 18.7284 169.496 15.7389 171.623 13.5076C172.669 12.4177 173.922 11.5535 175.307 10.9672C176.812 10.3347 178.429 10.0192 180.059 10.04C181.023 10.0327 181.985 10.1203 182.932 10.3015C183.742 10.457 184.535 10.6971 185.296 11.0181C185.988 11.3132 186.645 11.6845 187.256 12.1253C187.852 12.5553 188.412 13.0347 188.93 13.5585L185.785 17.2401C184.982 16.4883 184.08 15.8518 183.106 15.3484C182.149 14.8843 181.099 14.6518 180.039 14.6691C179.156 14.6596 178.281 14.8406 177.473 15.2001C176.665 15.5596 175.941 16.0895 175.35 16.7544C174.764 17.4177 174.305 18.1859 173.997 19.0197C173.674 19.9009 173.512 20.8341 173.518 21.7741V21.8386C173.515 22.7772 173.677 23.7088 173.997 24.5896C174.301 25.4264 174.756 26.199 175.337 26.8685C175.923 27.5417 176.645 28.0793 177.454 28.4449C178.263 28.8106 179.14 28.9957 180.025 28.9877C181.153 29.0238 182.272 28.7776 183.284 28.2711C184.247 27.7388 185.137 27.0811 185.933 26.3149L189.081 29.5413C188.525 30.1531 187.924 30.7208 187.282 31.2395C186.652 31.7447 185.968 32.1764 185.243 32.5266C184.47 32.8956 183.656 33.1681 182.818 33.3383C181.85 33.5351 180.865 33.6307 179.878 33.6236V33.6236Z" fill="white"/>
<path d="M194.914 10.4219H211.836V14.8846H199.78V19.5103H210.396V23.9729H199.797V28.7617H212.004V33.2243H194.924L194.914 10.4219Z" fill="white"/>
</g>
<defs>
<clipPath id="clip0_2580_143">
<rect width="212" height="43" fill="white"/>
</clipPath>
</defs>
</svg>
