<svg width="29" height="29" viewBox="0 0 29 29" fill="none" xmlns="http://www.w3.org/2000/svg">
<circle cx="14.8003" cy="14.6345" r="13.814" fill="url(#paint0_linear_183_271)"/>
<path d="M8.97826 17.8676C9.07708 17.7715 9.20987 17.7175 9.34884 17.7175H22.2111C22.4458 17.7175 22.5632 17.9937 22.3964 18.1528L19.8548 20.6238C19.756 20.7199 19.6232 20.774 19.4842 20.774H6.62198C6.38728 20.774 6.26993 20.4977 6.43669 20.3386L8.97826 17.8676Z" fill="white"/>
<path d="M8.97826 8.64499C9.07708 8.54892 9.20987 8.49487 9.34884 8.49487H22.2111C22.4458 8.49487 22.5632 8.7711 22.3964 8.93023L19.8548 11.3982C19.756 11.4943 19.6232 11.5483 19.4842 11.5483H6.62198C6.38728 11.5483 6.26993 11.2721 6.43669 11.113L8.97826 8.64499Z" fill="white"/>
<path d="M19.8548 13.2263C19.756 13.1302 19.6232 13.0762 19.4842 13.0762H6.62198C6.38728 13.0762 6.26993 13.3524 6.43669 13.5115L8.97826 15.9795C9.07708 16.0756 9.20987 16.1297 9.34884 16.1297H22.2111C22.4458 16.1297 22.5632 15.8534 22.3964 15.6943L19.8548 13.2263Z" fill="white"/>
<defs>
<linearGradient id="paint0_linear_183_271" x1="3.31793" y1="29.1076" x2="28.848" y2="3.36617" gradientUnits="userSpaceOnUse">
<stop offset="0.08" stop-color="#9945FF"/>
<stop offset="0.3" stop-color="#8752F3"/>
<stop offset="0.5" stop-color="#5497D5"/>
<stop offset="0.6" stop-color="#43B4CA"/>
<stop offset="0.72" stop-color="#28E0B9"/>
<stop offset="0.97" stop-color="#19FB9B"/>
</linearGradient>
</defs>
</svg>
