<svg width="140" height="26" viewBox="0 0 140 26" fill="none" xmlns="http://www.w3.org/2000/svg">
<path d="M47.2181 14.2373H52.4711C53.2098 14.2373 53.8083 14.8413 53.8083 15.5787C53.8083 16.3225 53.2098 16.9201 52.4711 16.9201H46.1357C46.0338 16.9201 45.9383 16.9583 45.8683 17.0219L43.9581 18.6684C43.6652 18.9227 43.8434 19.3995 44.2255 19.3995H52.1528C52.1528 19.3995 52.1592 19.3995 52.1592 19.3932C52.1592 19.3868 52.1655 19.3868 52.1655 19.3868C52.2674 19.3932 52.3629 19.3995 52.4648 19.3995C54.566 19.3995 56.2724 17.6894 56.2724 15.5787C56.2724 13.5761 54.7379 11.9296 52.7768 11.7706C52.7768 11.7706 52.7704 11.7706 52.7704 11.7643C52.7704 11.7579 52.7704 11.7579 52.764 11.7579H47.1099C46.3713 11.7579 45.7727 11.154 45.7727 10.4165C45.7727 9.67269 46.3713 9.07509 47.1099 9.07509H53.4326C53.5345 9.07509 53.6364 9.03695 53.7128 8.96702L55.4893 7.32045C55.7694 7.05979 55.5848 6.5957 55.2091 6.5957H47.2181C47.1863 6.5957 47.1481 6.5957 47.1162 6.5957C45.015 6.5957 43.3086 8.30585 43.3086 10.4165C43.3086 12.5272 45.015 14.2373 47.1162 14.2373C47.1481 14.2373 47.1799 14.2373 47.2181 14.2373Z" fill="black"/>
<path d="M77.7947 6.58863C77.5655 6.58863 77.3809 6.773 77.3809 7.00822V18.9856C77.3809 19.2144 77.5655 19.4052 77.7947 19.4052H87.4093C87.5239 19.4052 87.6322 19.3543 87.715 19.2717L88.9184 17.9811C89.1667 17.7141 88.982 17.2754 88.6127 17.2754H80.2207C79.9914 17.2754 79.8068 17.0911 79.8068 16.8558V7.00186C79.8068 6.773 79.6221 6.58228 79.3929 6.58228H77.7947V6.58863Z" fill="black"/>
<path fill-rule="evenodd" clip-rule="evenodd" d="M62.3923 6.59131C62.3923 6.59767 62.3923 6.59767 62.3923 6.59131C61.1634 6.64853 60.1764 7.63392 60.1191 8.8609V16.9157C60.1191 16.9475 60.1191 16.9857 60.1191 17.0175C60.1191 18.2953 61.1252 19.3379 62.3923 19.3888H71.1155C72.3762 19.3316 73.3886 18.2889 73.3886 17.0175C73.3886 16.9857 73.3886 16.9475 73.3886 16.9157V8.86726C73.3377 7.64028 72.3507 6.64853 71.1219 6.59767H62.3923V6.59131ZM64.0223 8.86726C64.0159 8.86726 64.0159 8.86726 64.0223 8.86726C63.2519 8.89905 62.6342 9.52207 62.6024 10.2977V15.3645C62.6024 15.3836 62.6024 15.409 62.6024 15.4281C62.6024 16.2291 63.2328 16.8903 64.0223 16.9221H69.4918C70.2814 16.8903 70.9117 16.2291 70.9117 15.4281C70.9117 15.409 70.9117 15.3836 70.9117 15.3645V10.2977C70.8799 9.52207 70.2623 8.9054 69.4918 8.86726H64.0223Z" fill="black"/>
<path fill-rule="evenodd" clip-rule="evenodd" d="M102.896 18.9902C102.896 19.2191 103.08 19.4098 103.309 19.4098H104.939C105.169 19.4098 105.353 19.2254 105.353 18.9902V9.07899C105.353 9.0472 105.353 9.00906 105.353 8.97727C105.353 7.69943 104.354 6.65682 103.106 6.60596H94.7327C94.7008 6.60596 94.6626 6.60596 94.6308 6.60596C93.3319 6.60596 92.2812 7.66764 92.2812 8.98363C92.2812 9.01542 92.2812 9.05356 92.2812 9.08535V18.9966C92.2812 19.2254 92.4659 19.4161 92.6951 19.4161H94.3252C94.5544 19.4161 94.739 19.2318 94.739 18.9966V14.8706C94.739 14.6417 94.9237 14.451 95.1529 14.451H102.501C102.73 14.451 102.915 14.6354 102.915 14.8706V18.9902H102.896ZM94.7263 12.1687V10.1089C94.7263 9.30786 95.3694 8.6594 96.1589 8.6594H101.469C102.259 8.6594 102.902 9.30786 102.902 10.1089V12.1687C102.902 12.3976 102.717 12.5883 102.488 12.5883H95.1402C94.9109 12.5883 94.7263 12.4039 94.7263 12.1687Z" fill="black"/>
<path fill-rule="evenodd" clip-rule="evenodd" d="M137.305 19.4059C137.076 19.4059 136.892 19.2215 136.892 18.9863V14.8603C136.892 14.6315 136.707 14.4407 136.478 14.4407H129.047C128.818 14.4407 128.633 14.6251 128.633 14.8603V18.9863C128.633 19.2152 128.448 19.4059 128.219 19.4059H126.576C126.347 19.4059 126.163 19.2215 126.163 18.9863V9.07509C126.163 9.04331 126.163 9.00516 126.163 8.97338C126.163 7.66375 127.226 6.5957 128.538 6.5957C128.569 6.5957 128.608 6.5957 128.639 6.5957H137.102C138.362 6.65292 139.375 7.69554 139.375 8.96702C139.375 8.9988 139.375 9.03695 139.375 9.06874V18.9799C139.375 19.2088 139.19 19.3995 138.961 19.3995H137.305V19.4059ZM128.633 10.105V12.1648C128.633 12.3937 128.818 12.5844 129.047 12.5844H136.478C136.707 12.5844 136.892 12.4 136.892 12.1648V10.105C136.892 9.30396 136.242 8.6555 135.446 8.6555H130.078C129.276 8.6555 128.633 9.30396 128.633 10.105Z" fill="black"/>
<path d="M111.488 6.59131C111.609 6.59131 111.723 6.64217 111.8 6.73753L119.109 15.4408C119.358 15.7333 119.835 15.5553 119.835 15.1675V7.0109C119.835 6.78203 120.02 6.59131 120.249 6.59131H121.879C122.108 6.59131 122.293 6.77567 122.293 7.0109V18.9883C122.293 19.2171 122.108 19.4078 121.879 19.4078H119.854C119.848 19.4078 119.841 19.4015 119.841 19.3951C119.841 19.3888 119.841 19.3888 119.835 19.3824L112.398 10.7427C112.15 10.4503 111.672 10.6346 111.672 11.0161V18.9946C111.672 19.2235 111.488 19.4142 111.258 19.4142H109.616C109.386 19.4142 109.202 19.2298 109.202 18.9946V7.0109C109.202 6.78203 109.386 6.59131 109.616 6.59131H111.488V6.59131Z" fill="black"/>
<path d="M5.40171 19.846C5.60546 19.6426 5.87926 19.5282 6.16579 19.5282H32.6856C33.1695 19.5282 33.4115 20.113 33.0676 20.45L27.8274 25.6821C27.6236 25.8856 27.3498 26 27.0633 26H0.543458C0.0595427 26 -0.182415 25.4151 0.161419 25.0782L5.40171 19.846Z" fill="url(#paint0_linear_184_310)"/>
<path d="M5.40171 0.317871C5.60546 0.114433 5.87926 0 6.16579 0H32.6856C33.1695 0 33.4115 0.584882 33.0676 0.921825L27.8274 6.14762C27.6236 6.35106 27.3498 6.46549 27.0633 6.46549H0.543458C0.0595427 6.46549 -0.182415 5.88061 0.161419 5.54367L5.40171 0.317871Z" fill="url(#paint1_linear_184_310)"/>
<path d="M27.8274 10.0184C27.6236 9.815 27.3498 9.70057 27.0633 9.70057H0.543458C0.0595427 9.70057 -0.182415 10.2855 0.161419 10.6224L5.40171 15.8482C5.60546 16.0516 5.87926 16.1661 6.16579 16.1661H32.6856C33.1695 16.1661 33.4115 15.5812 33.0676 15.2442L27.8274 10.0184Z" fill="url(#paint2_linear_184_310)"/>
<defs>
<linearGradient id="paint0_linear_184_310" x1="2.8043" y1="26.6202" x2="26.0786" y2="-3.37148" gradientUnits="userSpaceOnUse">
<stop offset="0.08" stop-color="#9945FF"/>
<stop offset="0.3" stop-color="#8752F3"/>
<stop offset="0.5" stop-color="#5497D5"/>
<stop offset="0.6" stop-color="#43B4CA"/>
<stop offset="0.72" stop-color="#28E0B9"/>
<stop offset="0.97" stop-color="#19FB9B"/>
</linearGradient>
<linearGradient id="paint1_linear_184_310" x1="2.8043" y1="26.6202" x2="26.0786" y2="-3.37148" gradientUnits="userSpaceOnUse">
<stop offset="0.08" stop-color="#9945FF"/>
<stop offset="0.3" stop-color="#8752F3"/>
<stop offset="0.5" stop-color="#5497D5"/>
<stop offset="0.6" stop-color="#43B4CA"/>
<stop offset="0.72" stop-color="#28E0B9"/>
<stop offset="0.97" stop-color="#19FB9B"/>
</linearGradient>
<linearGradient id="paint2_linear_184_310" x1="2.8043" y1="26.6202" x2="26.0786" y2="-3.37148" gradientUnits="userSpaceOnUse">
<stop offset="0.08" stop-color="#9945FF"/>
<stop offset="0.3" stop-color="#8752F3"/>
<stop offset="0.5" stop-color="#5497D5"/>
<stop offset="0.6" stop-color="#43B4CA"/>
<stop offset="0.72" stop-color="#28E0B9"/>
<stop offset="0.97" stop-color="#19FB9B"/>
</linearGradient>
</defs>
</svg>
