<svg width="108" height="22" viewBox="0 0 108 22" fill="none" xmlns="http://www.w3.org/2000/svg">
<g clip-path="url(#clip0_106_108)">
<path d="M6.60579 9.24414L10.801 4.97307L14.9979 9.24761L17.4375 6.76108L10.801 0L4.16443 6.75934L6.60579 9.24414Z" fill="#24272C"/>
<path d="M-0.000976562 11.0005L2.43949 8.51486L4.87996 11.0005L2.43949 13.4861L-0.000976562 11.0005Z" fill="#24272C"/>
<path d="M6.60579 12.7559L10.801 17.0287L14.9979 12.7542L17.4392 15.2372L17.4375 15.2389L10.801 22L4.16442 15.2424L4.16101 15.2389L6.60579 12.7559Z" fill="#24272C"/>
<path d="M16.7178 11.001L19.1582 8.51535L21.5987 11.001L19.1582 13.4866L16.7178 11.001Z" fill="#24272C"/>
<path d="M13.2764 10.9991L10.8009 8.47607L8.97032 10.3405L8.75877 10.5543L8.32543 10.9956L8.32202 10.9991L8.32543 11.0043L10.8009 13.5239L13.2764 11.0008L13.2781 10.9991H13.2764Z" fill="#24272C"/>
<path d="M25.4065 5.33105H30.7157C32.0328 5.33105 33.0291 5.67858 33.7047 6.37363C33.9593 6.63037 34.1599 6.93711 34.2945 7.27524C34.4291 7.61336 34.4949 7.97582 34.4878 8.34061V8.37363C34.4924 8.67247 34.4515 8.97023 34.3667 9.25634C34.2911 9.50264 34.1814 9.73668 34.0408 9.95138C33.9098 10.1538 33.7513 10.3364 33.57 10.4935C33.3928 10.6488 33.1988 10.7829 32.9916 10.8932C33.589 11.1051 34.1262 11.4631 34.5561 11.9357C34.9359 12.3759 35.1259 12.9841 35.1259 13.7602V13.7933C35.1367 14.278 35.0331 14.7583 34.8239 15.1938C34.6212 15.5951 34.324 15.9389 33.9589 16.1947C33.5462 16.4765 33.0866 16.6796 32.6026 16.7941C32.0276 16.933 31.4381 17.0001 30.8471 16.994H25.4065V5.33105ZM30.1834 10.047C30.6428 10.0696 31.0999 9.9689 31.509 9.75503C31.6686 9.66011 31.7989 9.52158 31.8851 9.35513C31.9713 9.18868 32.0101 9.00097 31.997 8.81324V8.78023C32.0054 8.60726 31.9709 8.43491 31.8967 8.27911C31.8224 8.12331 31.7108 7.98908 31.5722 7.88883C31.289 7.68379 30.8801 7.58127 30.3455 7.58127H27.8615V10.047H30.1834ZM30.8539 14.7472C31.3116 14.7733 31.7671 14.6667 32.1676 14.4397C32.3236 14.3376 32.4499 14.1947 32.5333 14.026C32.6167 13.8573 32.6542 13.669 32.6419 13.4805V13.4475C32.648 13.2683 32.6109 13.0904 32.5339 12.9292C32.4569 12.7681 32.3422 12.6286 32.2 12.5231C31.9066 12.2914 31.4323 12.1755 30.7771 12.1755H27.8615V14.7472H30.8539Z" fill="#24272C"/>
<path d="M38.2889 5.33105H40.8088V16.9974H38.2889V5.33105Z" fill="#24272C"/>
<path d="M44.6218 5.33105H46.9455L52.3161 12.5109V5.33105H54.8035V16.9974H52.659L47.1127 9.58127V16.9974H44.6218V5.33105Z" fill="#24272C"/>
<path d="M62.433 5.2478H64.7532L69.6615 16.9976H67.0308L65.9833 14.3807H61.1398L60.0923 16.9976H57.5229L62.433 5.2478ZM65.0842 12.1149L63.559 8.33034L62.0406 12.1149H65.0842Z" fill="#24272C"/>
<path d="M72.3861 5.33105H74.7098L80.077 12.5109V5.33105H82.5644V16.9974H80.4199L74.8735 9.58127V16.9974H72.3861V5.33105Z" fill="#24272C"/>
<path d="M91.6338 17.2025C90.8307 17.2095 90.0346 17.0511 89.2931 16.7368C88.5951 16.4433 87.9618 16.0104 87.4306 15.4637C86.8993 14.917 86.4809 14.2675 86.2 13.5535C85.9036 12.8067 85.7535 12.008 85.7581 11.2025V11.1695C85.745 9.5817 86.3448 8.0522 87.4284 6.91059C87.9615 6.35294 88.5999 5.91084 89.305 5.61085C90.0721 5.28724 90.8957 5.12585 91.7259 5.13648C92.217 5.13275 92.7072 5.17756 93.1897 5.27028C93.6026 5.3498 94.0062 5.47267 94.3942 5.63691C94.7463 5.78785 95.081 5.97782 95.3922 6.20338C95.696 6.42337 95.9813 6.66863 96.2453 6.93665L94.6433 8.82023C94.2339 8.43559 93.7747 8.10994 93.2784 7.85238C92.7909 7.61496 92.256 7.496 91.7157 7.50485C91.266 7.49997 90.8205 7.59257 90.4087 7.77652C89.9969 7.96047 89.6283 8.23155 89.3272 8.57175C89.0287 8.91109 88.795 9.30414 88.638 9.73075C88.4736 10.1816 88.3909 10.6591 88.394 11.14V11.173C88.3924 11.6532 88.475 12.1298 88.638 12.5804C88.793 13.0086 89.0244 13.4039 89.3204 13.7464C89.619 14.0908 89.9868 14.3659 90.3989 14.5529C90.811 14.74 91.2577 14.8347 91.7089 14.8307C92.2834 14.8491 92.8535 14.7232 93.3689 14.464C93.8595 14.1917 94.3132 13.8552 94.7183 13.4632L96.322 15.1139C96.0389 15.4269 95.7326 15.7174 95.4059 15.9827C95.0849 16.2412 94.7364 16.4621 94.3669 16.6413C93.9732 16.83 93.5584 16.9695 93.1317 17.0565C92.6386 17.1572 92.1367 17.2061 91.6338 17.2025V17.2025Z" fill="#24272C"/>
<path d="M99.2957 5.33105H107.916V7.61429H101.775V9.98092H107.183V12.2642H101.783V14.7142H108.002V16.9974H99.3008L99.2957 5.33105Z" fill="#24272C"/>
</g>
<defs>
<clipPath id="clip0_106_108">
<rect width="108" height="22" fill="white"/>
</clipPath>
</defs>
</svg>
