<svg width="108" height="19" viewBox="0 0 108 19" fill="none" xmlns="http://www.w3.org/2000/svg">
<g clip-path="url(#clip0_106_123)">
<path d="M21.7972 5.30829C17.8739 5.30829 14.8083 8.23874 14.8083 12.1618C14.8083 16.0848 17.7964 18.9902 21.7972 18.9902C25.7981 18.9902 28.8382 16.0346 28.8382 12.1367C28.8382 8.26382 25.85 5.30829 21.7972 5.30829V5.30829ZM21.8237 16.1629C19.5895 16.1629 17.9523 14.4556 17.9523 12.1627C17.9523 9.84383 19.563 8.13746 21.7972 8.13746C24.0579 8.13746 25.6942 9.86988 25.6942 12.1627C25.6942 14.4556 24.058 16.1629 21.8237 16.1629V16.1629ZM29.695 8.28986H31.6439V18.7365H34.7615V5.56295H29.695V8.28986ZM6.96249 8.13649C8.59969 8.13649 9.89866 9.13003 10.3918 10.6078H13.6917C13.0936 7.44873 10.4437 5.30829 6.98896 5.30829C3.06558 5.30829 0 8.23874 0 12.1627C0 16.0867 2.98813 18.9911 6.98896 18.9911C10.3663 18.9911 13.0682 16.8507 13.6662 13.6656H10.3918C9.92415 15.1433 8.62518 16.1629 6.98798 16.1629C4.72728 16.1629 3.14302 14.4556 3.14302 12.1627C3.144 9.84383 4.70277 8.13649 6.96249 8.13649V8.13649ZM88.9301 10.8885L86.6439 10.5576C85.5528 10.4052 84.7734 10.0483 84.7734 9.2072C84.7734 8.28986 85.7871 7.83168 87.1635 7.83168C88.6703 7.83168 89.632 8.46831 89.8399 9.51297H92.8535C92.5153 6.86322 90.4369 5.30926 87.2419 5.30926C83.9421 5.30926 81.7598 6.96547 81.7598 9.30944C81.7598 11.5512 83.1891 12.8514 86.0724 13.2585L88.3586 13.5894C89.4762 13.7418 90.0997 14.1758 90.0997 14.9909C90.0997 16.0356 89.0085 16.4687 87.5017 16.4687C85.6567 16.4687 84.6175 15.7298 84.4616 14.6089H81.3961C81.6823 17.1825 83.7342 18.9911 87.4753 18.9911C90.8791 18.9911 93.1388 17.4622 93.1388 14.8376C93.1388 12.4936 91.5026 11.2705 88.9301 10.8885V10.8885ZM33.2027 0.136116C32.0596 0.136116 31.2018 0.951201 31.2018 2.07206C31.2018 3.19293 32.0586 4.00801 33.2027 4.00801C34.3458 4.00801 35.2036 3.19293 35.2036 2.07206C35.2036 0.951201 34.3458 0.136116 33.2027 0.136116ZM78.954 10.0734C78.954 7.22012 77.1874 5.30926 73.4464 5.30926C69.9131 5.30926 67.9387 7.06772 67.5485 9.76859H70.6406C70.7964 8.72393 71.6278 7.85772 73.3944 7.85772C74.9796 7.85772 75.759 8.54548 75.759 9.38661C75.759 10.4824 74.3297 10.7621 72.563 10.9406C70.1729 11.1952 67.2113 12.0103 67.2113 15.0681C67.2113 17.4381 69.0044 18.966 71.8621 18.966C74.0963 18.966 75.4992 18.0487 76.2012 16.596C76.3051 17.8953 77.2923 18.7365 78.6697 18.7365H80.4883V16.0105H78.955V10.0734H78.954ZM75.8884 13.3858C75.8884 15.1443 74.3297 16.4436 72.4327 16.4436C71.2631 16.4436 70.2759 15.9594 70.2759 14.9408C70.2759 13.6415 71.8611 13.2846 73.316 13.1321C74.7189 13.0048 75.4982 12.699 75.8884 12.1126V13.3858ZM59.339 5.30829C57.5979 5.30829 56.1431 6.02209 55.1039 7.21916V0.00878906H51.9864V18.7365H55.0519V17.004C56.0911 18.2522 57.5724 18.9911 59.339 18.9911C63.0801 18.9911 65.9123 16.0867 65.9123 12.1627C65.9123 8.23874 63.0281 5.30829 59.339 5.30829ZM58.8714 16.1629C56.6372 16.1629 55 14.4556 55 12.1627C55 9.86988 56.6627 8.13746 58.8969 8.13746C61.1576 8.13746 62.7418 9.8448 62.7418 12.1627C62.7418 14.4556 61.1056 16.1629 58.8714 16.1629ZM44.5298 5.30829C42.5034 5.30829 41.1779 6.12338 40.3985 7.27028V5.56295H37.3065V18.7355H40.424V11.5762C40.424 9.56313 41.723 8.13649 43.6455 8.13649C45.4385 8.13649 46.5552 9.38468 46.5552 11.1943V18.7365H49.6727V10.9657C49.6737 7.65226 47.9336 5.30829 44.5298 5.30829V5.30829ZM108 11.7296C108 7.95901 105.194 5.30926 101.427 5.30926C97.4259 5.30926 94.4897 8.26478 94.4897 12.1627C94.4897 16.2652 97.6337 18.9911 101.479 18.9911C104.727 18.9911 107.273 17.1053 107.922 14.4305H104.674C104.206 15.6025 103.063 16.2652 101.53 16.2652C99.5287 16.2652 98.0219 15.0421 97.6847 12.9016H107.999V11.7296H108ZM97.867 10.71C98.3611 8.87538 99.764 7.98409 101.375 7.98409C103.141 7.98409 104.492 8.97762 104.804 10.71H97.867Z" fill="#24272C"/>
</g>
<defs>
<clipPath id="clip0_106_123">
<rect width="108" height="19" fill="white"/>
</clipPath>
</defs>
</svg>
