<svg width="114" height="16" viewBox="0 0 114 16" fill="none" xmlns="http://www.w3.org/2000/svg">
<g clip-path="url(#clip0_106_140)">
<path d="M26.5685 5.91553H16.9289L16.5718 6.22005V15.9972H19.2402V12.3308L19.495 12.0706H26.5688C28.3549 12.0706 29.1923 11.5227 29.1923 10.1169V7.87198C29.1919 6.46382 28.3549 5.91553 26.5685 5.91553ZM26.5685 9.53017C26.5685 10.1925 26.1842 10.3301 25.3468 10.3301H19.5242L19.2399 10.015V7.92057L19.4946 7.65485H25.3468C26.1842 7.65485 26.5685 7.79085 26.5685 8.45632V9.53017Z" fill="#24272C"/>
<path d="M34.0582 7.765L36.3544 11.6007L36.2273 11.9722H31.1492L29.8529 13.7903H37.4118L37.9357 14.154L39.1092 15.9996H42.163L35.4693 5.79053" fill="#24272C"/>
<path d="M64.4235 14.0138V11.3001L64.6981 11.0297H69.8068V9.30176H61.71V15.9992H73.6536V14.2795H64.7101" fill="#24272C"/>
<path d="M73.7798 5.91553H61.71V7.81554H73.7798V5.91553Z" fill="#24272C"/>
<path d="M48.248 7.71492H57.9718C57.8219 6.3052 57.0547 5.91406 55.1084 5.91406H48.1445C45.9483 5.91406 45.2478 6.40278 45.2478 8.2977V13.614C45.2478 15.5109 45.9483 15.9996 48.1445 15.9996H55.1084C57.0832 15.9996 57.8394 15.5768 57.891 14.1145H48.248L47.962 13.8077V7.92028" fill="#24272C"/>
<path d="M10.0829 9.84406H3.00903L2.80073 9.58265V7.85743L3.008 7.6748H12.5441L12.6744 7.31149C12.3495 6.35874 11.5084 5.91431 9.94643 5.91431H3.32218C1.12739 5.91431 0.425813 6.40303 0.425813 8.29794V9.41256C0.425813 11.3098 1.12739 11.7978 3.32218 11.7978H10.3802L10.6019 12.0196V13.8232L10.4211 14.1046H2.34767V14.096H0.232974C0.232974 14.096 -0.00902074 14.2343 0.000260296 14.299C0.180725 15.6244 0.972706 15.9999 2.86879 15.9999H10.0829C12.2773 15.9999 12.9999 15.5112 12.9999 13.6143V12.2257C12.9999 10.332 12.2773 9.84406 10.0829 9.84406Z" fill="#24272C"/>
<path d="M81.3723 5.87402H77.4017L77.1862 6.34158L81.5957 10.0064C82.431 9.45497 83.3398 8.89609 84.3284 8.34467" fill="#24272C"/>
<path d="M84.9301 12.7777L88.8057 16H92.8248L92.9911 15.5732L87.2039 10.7437C86.4353 11.3868 85.676 12.066 84.9301 12.7777Z" fill="#24272C"/>
<path d="M80.7814 15.9926H77.1889L76.8854 15.4505C79.328 12.7616 90.2528 1.23493 114 0C114 0 94.0677 0.76659 80.7814 15.9926Z" fill="#24272C"/>
</g>
<defs>
<clipPath id="clip0_106_140">
<rect width="114" height="16" fill="white"/>
</clipPath>
</defs>
</svg>
