<svg width="102" height="16" viewBox="0 0 102 16" fill="none" xmlns="http://www.w3.org/2000/svg">
<path d="M7.38751 15.1296L9.45443 3.50513C11.4246 3.50513 12.046 3.72116 12.1357 4.60296C12.1357 4.60296 13.4574 4.11018 14.1239 3.10935C11.5227 1.90402 8.90915 1.84966 8.90915 1.84966L7.38408 3.70718L7.38751 3.70695L5.86244 1.84937C5.86244 1.84937 3.24878 1.90378 0.647949 3.10912C1.31395 4.10995 2.6361 4.60273 2.6361 4.60273C2.72635 3.72087 3.34701 3.50483 5.30393 3.50344L7.38751 15.1296" fill="#24272C"/>
<path d="M7.38721 1.31386C9.4899 1.29778 11.8967 1.63914 14.3605 2.71297C14.6898 2.12027 14.7744 1.85832 14.7744 1.85832C12.0811 0.792757 9.55888 0.428093 7.38692 0.418945C5.21507 0.428093 2.69295 0.792815 0 1.85832C0 1.85832 0.120137 2.18098 0.413663 2.71297C2.877 1.63914 5.28417 1.29778 7.38692 1.31386H7.38721Z" fill="#24272C"/>
<path d="M89.9058 6.59839V12.7136H91.8668V8.64208H99.0043V12.7136H100.964V6.60899L89.9058 6.59839Z" fill="#24272C"/>
<path d="M91.6495 4.62164H99.1902C100.238 4.41345 101.017 3.48914 101.236 2.59497H89.6039C89.8213 3.48942 90.6116 4.41345 91.6495 4.62164Z" fill="#24272C"/>
<path d="M83.9741 12.7233C84.9628 12.3042 85.4948 11.5791 85.6985 10.7307H76.9028L76.9083 2.60449L74.9366 2.61007V12.7233H83.9741" fill="#24272C"/>
<path d="M60.2707 4.596H67.2348C68.2847 4.29096 69.1663 3.49113 69.3812 2.60449H58.3185V8.58097H67.3729V10.6782L60.2707 10.6838C59.1577 10.9942 58.2138 11.7415 57.743 12.7286L58.3185 12.718H69.3184V6.59392H60.2707V4.596" fill="#24272C"/>
<path d="M43.0762 4.61564H50.6144C51.6632 4.40661 52.4426 3.48314 52.6612 2.58813H41.0294C41.2465 3.48314 42.0375 4.40661 43.0762 4.61564" fill="#24272C"/>
<path d="M43.0762 8.61505H50.6144C51.6632 8.40825 52.4426 7.48394 52.6612 6.58838H41.0294C41.2465 7.48422 42.0375 8.40825 43.0762 8.61505" fill="#24272C"/>
<path d="M43.0762 12.7196H50.6144C51.6632 12.5111 52.4426 11.5871 52.6612 10.6926H41.0294C41.2465 11.5874 42.0375 12.5111 43.0762 12.7196" fill="#24272C"/>
<path d="M23.4653 2.61451C23.6919 3.49835 24.4572 4.40173 25.5071 4.62806H28.6802L28.8421 4.69197V12.699H30.8235V4.69197L31.0035 4.62806H34.1795C35.2411 4.35457 35.9898 3.49835 36.2125 2.61451V2.59497H23.4653V2.61451Z" fill="#24272C"/>
</svg>
